<svg version="1.2" xmlns="http://www.w3.org/2000/svg" viewBox="0 0 915 683" width="915" height="683"><style>.a{fill:#007398}.b{fill:#0099cb}.c{fill:#0098ca}.d{fill:#0098c9}.e{fill:#0097c8}.f{fill:#0096c7}.g{fill:#0095c6}.h{fill:#0095c5}.i{fill:#0094c4}.j{fill:#0093c3}.k{fill:#0092c2}.l{fill:#0092c1}.m{fill:#0091c0}.n{fill:#0090bf}.o{fill:#008fbe}.p{fill:#008fbd}.q{fill:#008ebc}.r{fill:#008dbb}.s{fill:#008dba}.t{fill:#008cb9}.u{fill:#008bb8}.v{fill:#008ab7}.w{fill:#008ab6}.x{fill:#0089b5}.y{fill:#0088b4}.z{fill:#0087b3}.A{fill:#0087b2}.B{fill:#0086b2}.C{fill:#0085b1}.D{fill:#0085b0}.E{fill:#0084af}.F{fill:#0083ae}.G{fill:#0082ad}.H{fill:#0082ac}.I{fill:#0081ab}.J{fill:#0080aa}.K{fill:#007fa9}.L{fill:#007fa8}.M{fill:#007ea7}.N{fill:#007da6}.O{fill:#007da5}.P{fill:#007ca4}.Q{fill:#007ba3}.R{fill:#007aa2}.S{fill:#007aa1}.T{fill:#0079a0}.U{fill:#00789f}.V{fill:#00779e}.W{fill:#00779d}.X{fill:#00769c}.Y{fill:#00759b}.Z{fill:#00749a}.a0{fill:#007499}.a1{fill:#fe8926}.a2{fill:#fe8a27}.a3{fill:#fe8a28}.a4{fill:#fe8b29}.a5{fill:#fe8b2a}.a6{fill:#fe8c2b}.a7{fill:#fe8c2c}.a8{fill:#fe8d2d}.a9{fill:#fe8d2e}.aa{fill:#fe8e2f}.ab{fill:#fe8e30}.ac{fill:#fe8f31}.ad{fill:#fe9032}.ae{fill:#fe9033}.af{fill:#fe9134}.ag{fill:#fe9135}.ah{fill:#fe9236}.ai{fill:#fe9237}.aj{fill:#fe9338}.ak{fill:#fe9339}.al{fill:#fe943a}.am{fill:#fe943b}.an{fill:#fe953b}.ao{fill:#fe963c}.ap{fill:#fe963d}.aq{fill:#fe973e}.ar{fill:#fe973f}.as{fill:#fe9840}.at{fill:#fe9841}.au{fill:#fe9942}.av{fill:#fe9943}.aw{fill:#fe9a44}.ax{fill:#fe9a45}.ay{fill:#fe9b46}.az{fill:#fe9c47}.aA{fill:#fe9c48}.aB{fill:#fe9d49}.aC{fill:#fe9d4a}.aD{fill:#fe9e4b}.aE{fill:#fe9e4c}.aF{fill:#fe9f4d}.aG{fill:#fe9f4e}.aH{fill:#fea04f}.aI{fill:#fea050}.aJ{fill:#fea151}.aK{fill:#fea252}.aL{fill:#fea253}.aM{fill:#fea354}.aN{fill:#fea355}.aO{fill:#fea456}.aP{fill:#fea457}.aQ{fill:#fea558}.aR{fill:#fea559}.aS{fill:#fea65a}.aT{fill:#fea65b}.aU{fill:#fea75c}.aV{fill:#fea75d}.aW{fill:#fea85e}.aX{fill:#fea85f}.aY{fill:#fea960}.aZ{fill:#fea961}.b0{fill:#feaa62}.b1{fill:#feaa63}.b2{fill:#feab64}.b3{fill:#feab65}.b4{fill:#feac66}.b5{fill:#feac67}.b6{fill:#fead67}.b7{fill:#fead68}.b8{fill:#feae69}.b9{fill:#feae6a}.ba{fill:#feaf6b}.bb{fill:#feaf6c}.bc{fill:#feb06d}.bd{fill:#feb06e}.be{fill:#feb16f}.bf{fill:#feb170}.bg{fill:#feb271}.bh{fill:#feb272}.bi{fill:#feb373}.bj{fill:#feb374}.bk{fill:#feb475}.bl{fill:#feb476}.bm{fill:#feb577}.bn{fill:#feb578}.bo{fill:#feb679}.bp{fill:#feb67a}.bq{fill:#feb77b}.br{fill:#feb77c}.bs{fill:#feb87d}</style><path class="a" d="m504.5 676.5c-16.6-19.5 48.3-67 43-141-7.4-103.3-144.4-163.5-132-186 7.7-14 60.8 8 111 17 198.7 35.3 340.1-136.6 378-100 35.5 34.3-56.1 216.9-205 330-79.3 60.2-176.3 101.8-195 80z"/><path class="a" d="m505.2 675.7c-16.7-19.4 47.6-66.6 42.3-140.3-7.4-103.3-144.4-163.4-132-185.9 7.7-14 60.8 8 111 17 198.7 35.3 340.1-136.6 378-100 35.5 34.3-56 217.2-205 329.9-78.8 59.8-175.5 101.2-194.3 79.3z"/><path class="a" d="m505.9 675c-16.7-19.4 46.9-66.3 41.6-139.6-7.4-103.3-144.3-163.5-132-186 7.7-13.9 60.8 8.1 111 17 198.7 35.4 340.2-136.5 378-99.9 35.6 34.3-55.9 217.4-205 329.9-78.3 59.2-174.8 100.5-193.6 78.6z"/><path class="a" d="m506.5 674.3c-16.7-19.4 46.3-66 41-138.9-7.5-103.4-144.3-163.5-132-186 7.7-13.9 60.8 8.1 111 17 198.7 35.4 340.2-136.5 378-99.9 35.7 34.4-55.7 217.7-205 329.9-77.8 58.7-174 99.9-193 77.9z"/><path class="a" d="m507.2 673.5c-16.7-19.4 45.6-65.6 40.3-138.1-7.5-103.5-144.3-163.5-132-186 7.7-13.9 60.8 8.1 111 17 198.8 35.4 340.2-136.5 378-99.9 35.7 34.4-55.6 218-205 329.8-77.3 58.2-173.2 99.3-192.3 77.2z"/><path class="a" d="m507.9 672.8c-16.8-19.4 44.9-65.3 39.6-137.5-7.5-103.4-144.3-163.4-132-185.9 7.7-13.9 60.8 8.1 111 17 198.8 35.4 340.2-136.5 378-99.9 35.8 34.5-55.5 218.3-205 329.8-76.8 57.7-172.4 98.7-191.6 76.5z"/><path class="a" d="m508.5 672.1c-16.7-19.4 44.3-65 39-136.8-7.6-103.5-144.3-163.4-132-185.9 7.7-13.9 60.8 8.1 111 17 198.8 35.4 340.2-136.5 378-99.9 35.8 34.5-55.4 218.5-205 329.8-76.3 57.1-171.7 98-191 75.8z"/><path class="a" d="m509.2 671.3c-16.7-19.3 43.6-64.6 38.4-136-7.7-103.5-144.3-163.5-132-185.9 7.6-13.9 60.8 8.1 111 17 198.7 35.4 340.1-136.5 378-99.9 35.8 34.6-55.3 218.8-205 329.8-75.9 56.6-171 97.3-190.4 75z"/><path class="a" d="m509.9 670.6c-16.8-19.3 42.9-64.4 37.6-135.3-7.7-103.6-144.2-163.5-132-185.9 7.7-14 60.8 8.1 111 17 198.8 35.3 340.2-136.5 378-99.9 35.9 34.6-55.3 218.8-205 329.7-75.4 56-170.1 96.8-189.6 74.4z"/><path class="a" d="m510.6 669.9c-16.9-19.3 42.2-64.1 37-134.7-7.8-103.6-144.3-163.4-132-185.8 7.6-14 60.8 8.1 111 17 198.7 35.3 340.1-136.5 378-99.9 35.9 34.7-55.3 219-205 329.7-75 55.4-169.4 96.1-189 73.7z"/><path class="a" d="m511.2 669.1c-16.8-19.2 41.6-63.7 36.4-133.9-7.8-103.7-144.3-163.5-132-185.8 7.6-14 60.8 8 111 17 198.7 35.3 340.1-136.5 378-99.9 36 34.7-55.2 219.2-205 329.7-74.5 54.9-168.6 95.4-188.4 72.9z"/><path class="a" d="m511.9 668.4c-16.8-19.2 40.9-63.4 35.7-133.2-7.8-103.7-144.3-163.5-132-185.8 7.6-14 60.8 8 111 17 198.7 35.3 340.1-136.5 378-99.9 36 34.7-55.1 219.5-205 329.6-74 54.4-167.8 94.9-187.7 72.3z"/><path class="a" d="m512.6 667.7c-16.9-19.2 40.2-63.1 35-132.5-7.9-103.8-144.3-163.5-132-185.8 7.6-14 60.8 8 111 17 198.7 35.3 340.1-136.5 378-99.9 36.1 34.8-55 219.7-205 329.6-73.5 53.8-167.1 94.2-187 71.6z"/><path class="a" d="m513.3 667c-16.9-19.3 39.5-62.8 34.3-131.8-7.9-103.8-144.2-163.5-132-185.8 7.7-14 60.8 8 111 17 198.7 35.3 340.1-136.5 378-99.9 36.1 34.9-54.9 220-205 329.6-73 53.3-166.3 93.6-186.3 70.9z"/><path class="a" d="m513.9 666.2c-16.9-19.2 38.9-62.4 33.7-131.1-8-103.8-144.2-163.5-132-185.7 7.6-14 60.8 8 111 16.9 198.7 35.4 340.1-136.4 378-99.8 36.2 34.9-54.8 220.2-205 329.5-72.5 52.8-165.5 93-185.7 70.2z"/><path class="a" d="m514.6 665.5c-16.9-19.2 38.2-62.1 33-130.4-8-103.9-144.2-163.5-132-185.7 7.7-14 60.8 8 111 17 198.7 35.3 340.1-136.5 378-99.9 36.2 34.9-54.7 220.4-205 329.5-72 52.3-164.7 92.3-185 69.5z"/><path class="a" d="m515.3 664.8c-17-19.2 37.5-61.8 32.3-129.7-8-103.9-144.2-163.5-132-185.7 7.7-14 60.8 8 111 16.9 198.7 35.3 340.1-136.4 378-99.8 36.3 35-54.6 220.7-205 329.5-71.5 51.7-163.9 91.7-184.3 68.8z"/><path class="a" d="m516 664c-17-19.1 36.8-61.4 31.6-128.9-8.1-104-144.2-163.5-132-185.7 7.7-14 60.8 8 111 16.9 198.7 35.3 340.1-136.4 378-99.8 36.3 35-54.4 220.9-205 329.5-71 51.2-163.2 91-183.6 68z"/><path class="a" d="m516.6 663.3c-17-19.1 36.2-61.1 31-128.3-8.1-104-144.2-163.4-132-185.6 7.7-14 60.8 8 111 16.9 198.7 35.3 340.2-136.3 378-99.8 36.4 35.1-54.3 221.2-205 329.4-70.5 50.7-162.4 90.5-183 67.4z"/><path class="a" d="m517.3 662.6c-17-19.1 35.5-60.9 30.3-127.6-8.1-104-144.2-163.5-132-185.6 7.7-14 60.8 8 111 16.9 198.7 35.3 340.2-136.3 378-99.8 36.4 35.1-54.2 221.4-205 329.4-70 50.2-161.6 89.8-182.3 66.7z"/><path class="a" d="m518 661.8c-17-19 34.8-60.5 29.6-126.8-8.2-104.1-144.1-163.5-132-185.7 7.7-13.9 60.8 8.1 111 17 198.8 35.3 340.2-136.3 378-99.8 36.5 35.2-54.1 221.7-205 329.4-69.5 49.6-160.8 89.1-181.6 65.9z"/><path class="a" d="m518.6 661.1c-17-19 34.1-60.2 29-126.1-8.2-104.2-144.1-163.5-132-185.7 7.7-13.9 60.8 8.1 111 17 198.8 35.3 340.2-136.3 378-99.8 36.5 35.2-54 221.9-205 329.4-69 49.1-160 88.5-181 65.2z"/><path class="a" d="m519.3 660.4c-17-19.1 33.5-59.9 28.3-125.4-8.2-104.2-144.1-163.6-132-185.7 7.7-13.9 60.8 8.1 111 17 198.8 35.3 340.2-136.3 378-99.8 36.6 35.3-53.8 222.2-205 329.3-68.5 48.6-159.3 87.9-180.3 64.6z"/><path class="a" d="m520 659.6c-17.1-19 32.8-59.5 27.6-124.7-8.3-104.2-144.1-163.5-132-185.6 7.7-13.9 60.8 8.1 111 17 198.8 35.3 340.2-136.3 378-99.8 36.7 35.3-53.7 222.4-205 329.3-68 48.1-158.5 87.2-179.6 63.8z"/><path class="a" d="m520.7 658.9c-17.1-19 32-59.2 26.9-124-8.3-104.3-144.1-163.5-132-185.6 7.7-13.9 60.8 8.1 111 17 198.8 35.3 340.2-136.3 378-99.8 36.7 35.3-53.6 222.7-205 329.3-67.5 47.5-157.7 86.6-178.9 63.1z"/><path class="a" d="m521.3 658.2c-17.1-19 31.4-58.9 26.4-123.3-8.4-104.3-144.2-163.5-132-185.6 7.6-13.9 60.8 8.1 111 17 198.7 35.3 340.1-136.3 378-99.8 36.7 35.4-53.6 223-205 329.2-67.1 47.1-157 86-178.4 62.5z"/><path class="a" d="m522 657.5c-17.1-19 30.8-58.6 25.7-122.6-8.5-104.4-144.1-163.6-132-185.6 7.6-13.9 60.8 8.1 111 17 198.7 35.2 340.1-136.3 378-99.8 36.7 35.4-53.5 223.2-205 329.2-66.6 46.6-156.2 85.4-177.7 61.8z"/><path class="a" d="m522.7 656.7c-17.1-18.9 30-58.3 25-121.9-8.5-104.4-144.1-163.5-132-185.5 7.6-13.9 60.8 8.1 111 17 198.7 35.2 340.1-136.3 378-99.8 36.8 35.5-53.3 223.5-205 329.2-66.1 46-155.5 84.7-177 61z"/><path class="a" d="m523.4 656c-17.2-18.9 29.3-58 24.3-121.2-8.5-104.4-144.1-163.5-132-185.5 7.6-13.9 60.8 8.1 111 17 198.7 35.2 340.1-136.3 378-99.8 36.8 35.5-53.2 223.8-205 329.2-65.6 45.5-154.7 84.1-176.3 60.3z"/><path class="a" d="m524 655.3c-17.1-18.9 28.7-57.7 23.7-120.5-8.6-104.5-144.1-163.5-132-185.5 7.6-13.9 60.8 8.1 111 16.9 198.7 35.3 340.1-136.2 378-99.7 36.9 35.6-53.1 224-205 329.1-65.1 45-153.9 83.5-175.7 59.7z"/><path class="a" d="m524.7 654.5c-17.2-18.8 28-57.3 23-119.7-8.6-104.6-144.1-163.6-132-185.5 7.7-13.9 60.8 8 111 16.9 198.7 35.3 340.1-136.2 378-99.7 36.9 35.6-52.9 224.3-205 329.1-64.6 44.5-153.1 82.8-175 58.9z"/><path class="a" d="m525.4 653.8c-17.2-18.9 27.3-57 22.3-119-8.6-104.6-144.1-163.6-132-185.5 7.7-13.9 60.8 8 111 16.9 198.7 35.3 340.1-136.2 378-99.7 37 35.7-52.8 224.6-205 329.1-64.1 44-152.3 82.2-174.3 58.2z"/><path class="a" d="m526 653.1c-17.2-18.9 26.7-56.7 21.7-118.4-8.7-104.6-144.1-163.5-132-185.4 7.7-13.9 60.8 8 111 16.9 198.7 35.3 340.1-136.2 378-99.7 37 35.7-52.7 224.9-205 329.1-63.6 43.4-151.6 81.5-173.7 57.5z"/><path class="a" d="m526.7 652.3c-17.2-18.8 26-56.3 21-117.6-8.7-104.7-144-163.5-132-185.4 7.7-13.9 60.8 8 111 16.9 198.7 35.3 340.1-136.1 378-99.7 37.1 35.8-52.5 225.1-205 329-63 43-150.8 81-173 56.8z"/><path class="a" d="m527.4 651.6c-17.3-18.8 25.3-56 20.3-116.9-8.8-104.7-144-163.6-132-185.4 7.7-14 60.8 8 111 16.9 198.8 35.3 340.2-136.2 378-99.7 37.2 35.8-52.4 225.4-205 329-62.5 42.4-150 80.3-172.3 56.1z"/><path class="a" d="m528.1 650.9c-17.3-18.8 24.6-55.7 19.6-116.2-8.8-104.8-144-163.6-132-185.4 7.7-14 60.8 8 111 16.9 198.7 35.3 340.2-136.1 378-99.7 37.2 35.9-52.3 225.7-205 329-62 41.9-149.2 79.6-171.6 55.4z"/><path class="a" d="m528.7 650.1c-17.2-18.7 24-55.4 19-115.5-8.8-104.8-144-163.5-132-185.3 7.7-14 60.8 8 111 16.9 198.8 35.2 340.2-136.1 378-99.7 37.3 35.9-52.1 226-205 328.9-61.5 41.5-148.4 79.1-171 54.7z"/><path class="a" d="m529.4 649.4c-17.3-18.7 23.3-55.1 18.3-114.8-8.9-104.8-144-163.5-132-185.3 7.7-14 60.8 8 111 16.9 198.8 35.2 340.2-136.1 378-99.7 37.3 35.9-52 226.3-205 328.9-61 40.9-147.7 78.4-170.3 54z"/><path class="a" d="m530.1 648.7c-17.3-18.7 22.6-54.8 17.6-114.1-8.9-104.9-144-163.6-132-185.4 7.7-13.9 60.8 8.1 111 17 198.8 35.2 340.2-136.1 378-99.7 37.4 36-51.8 226.6-205 328.9-60.5 40.4-146.9 77.7-169.6 53.3z"/><path class="a" d="m530.8 648c-17.4-18.7 21.9-54.5 17-113.4-9-105-144-163.6-132-185.4 7.6-13.9 60.8 8.1 111 17 198.7 35.2 340.1-136.1 378-99.7 37.3 36-51.8 226.9-205 328.9-60.1 39.9-146.2 77.1-169 52.6z"/><path class="a" d="m531.4 647.2c-17.3-18.6 21.3-54.1 16.4-112.6-9.1-105-144-163.6-132-185.4 7.6-13.9 60.8 8.1 111 17 198.7 35.2 340.1-136.1 378-99.6 37.4 36-51.6 227.1-205 328.7-59.6 39.5-145.4 76.5-168.4 51.9z"/><path class="a" d="m532.1 646.5c-17.4-18.7 20.6-53.8 15.7-112-9.1-105-144-163.5-132-185.3 7.6-13.9 60.8 8.1 111 17 198.7 35.2 340.1-136.1 378-99.7 37.4 36.1-51.5 227.5-205 328.8-59 38.9-144.6 75.9-167.7 51.2z"/><path class="a" d="m532.8 645.8c-17.4-18.7 19.9-53.5 15-111.3-9.1-105.1-144-163.6-132-185.3 7.6-13.9 60.8 8.1 111 17 198.7 35.2 340.1-136.1 378-99.7 37.5 36.2-51.3 227.8-205 328.8-58.5 38.4-143.9 75.2-167 50.5z"/><path class="a" d="m533.5 645c-17.4-18.6 19.2-53.1 14.3-110.5-9.2-105.1-144-163.6-132-185.3 7.6-13.9 60.8 8.1 111 17 198.7 35.2 340.1-136.1 378-99.6 37.5 36.1-51.2 228-205 328.6-58 38-143.1 74.7-166.3 49.8z"/><path class="a" d="m534.1 644.3c-17.4-18.6 18.6-52.8 13.7-109.8-9.2-105.2-144-163.6-132-185.3 7.6-13.9 60.8 8 111 16.9 198.7 35.3 340.1-136 378-99.5 37.6 36.2-51 228.3-205 328.6-57.5 37.5-142.3 74-165.7 49.1z"/><path class="a" d="m534.8 643.6c-17.5-18.6 17.9-52.5 13-109.2-9.3-105.1-143.9-163.5-132-185.2 7.6-13.9 60.8 8 111 16.9 198.7 35.3 340.1-136 378-99.5 37.6 36.2-50.9 228.6-205 328.6-57 36.9-141.5 73.4-165 48.4z"/><path class="a" d="m535.5 642.8c-17.5-18.5 17.2-52.1 12.3-108.4-9.3-105.2-143.9-163.6-132-185.2 7.7-13.9 60.8 8 111 16.9 198.7 35.3 340.1-136 378-99.5 37.7 36.3-50.7 228.9-205 328.6-56.4 36.4-140.7 72.7-164.3 47.6z"/><path class="a" d="m536.1 642.1c-17.4-18.5 16.6-51.9 11.7-107.7-9.3-105.3-143.9-163.6-132-185.2 7.7-13.9 60.8 8 111 16.9 198.7 35.2 340.1-136 378-99.5 37.8 36.3-50.5 229.3-205 328.5-55.9 36-139.9 72.1-163.7 47z"/><path class="a" d="m536.8 641.4c-17.5-18.5 15.9-51.6 11-107-9.4-105.4-143.9-163.6-132-185.2 7.7-13.9 60.8 8 111 16.9 198.7 35.2 340.1-136 378-99.6 37.8 36.4-50.2 229.9-205 328.6-55.4 35.5-139.2 71.4-163 46.3z"/><path class="a" d="m537.5 640.6c-17.5-18.5 15.2-51.2 10.3-106.3-9.4-105.3-143.9-163.6-132-185.1 7.7-13.9 60.8 8 111 16.9 198.7 35.2 340.2-136 378-99.5 37.9 36.4-50.1 230.1-205 328.5-54.8 35-138.4 70.8-162.3 45.5z"/><path class="a" d="m538.2 639.9c-17.6-18.5 14.5-50.9 9.6-105.6-9.4-105.4-143.9-163.6-132-185.1 7.7-13.9 60.8 8 111 16.9 198.7 35.2 340.2-136 378-99.5 37.9 36.4-49.9 230.4-205 328.4-54.3 34.6-137.6 70.2-161.6 44.9z"/><path class="a" d="m538.8 639.2c-17.5-18.5 13.9-50.6 9-104.9-9.5-105.5-143.8-163.6-132-185.1 7.7-13.9 60.8 8 111 16.9 198.8 35.2 340.2-136 378-99.5 38 36.5-49.8 230.6-205 328.4-53.8 34-136.8 69.6-161 44.2z"/><path class="a" d="m539.5 638.5c-17.5-18.5 13.2-50.3 8.3-104.2-9.5-105.5-143.8-163.6-132-185.1 7.7-13.9 60.8 8 111 16.9 198.8 35.2 340.2-135.9 378-99.5 38 36.5-49.7 230.9-205 328.4-53.3 33.5-136 68.9-160.3 43.5z"/><path class="b" d="m504.5 676.5c-16.6-19.5 48.3-67 43-141-7.4-103.3-144.4-163.5-132-186 7.7-14 60.8 8 111 17 198.7 35.3 340.1-136.6 378-100 35.5 34.3-56.1 216.9-205 330-79.3 60.2-176.3 101.8-195 80z"/><path class="c" d="m505.2 675.7c-16.7-19.4 47.6-66.6 42.3-140.3-7.4-103.3-144.4-163.4-132-185.9 7.7-14 60.8 8 111 17 198.7 35.3 340.1-136.6 378-100 35.5 34.3-56 217.2-205 329.9-78.8 59.8-175.5 101.2-194.3 79.3z"/><path class="d" d="m505.9 675c-16.7-19.4 46.9-66.3 41.6-139.6-7.4-103.3-144.3-163.5-132-186 7.7-13.9 60.8 8.1 111 17 198.7 35.4 340.2-136.5 378-99.9 35.6 34.3-55.9 217.4-205 329.9-78.3 59.2-174.8 100.5-193.6 78.6z"/><path class="e" d="m506.5 674.3c-16.7-19.4 46.3-66 41-138.9-7.5-103.4-144.3-163.5-132-186 7.7-13.9 60.8 8.1 111 17 198.7 35.4 340.2-136.5 378-99.9 35.7 34.4-55.7 217.7-205 329.9-77.8 58.7-174 99.9-193 77.9z"/><path class="f" d="m507.2 673.5c-16.7-19.4 45.6-65.6 40.3-138.1-7.5-103.5-144.3-163.5-132-186 7.7-13.9 60.8 8.1 111 17 198.8 35.4 340.2-136.5 378-99.9 35.7 34.4-55.6 218-205 329.8-77.3 58.2-173.2 99.3-192.3 77.2z"/><path class="g" d="m507.9 672.8c-16.8-19.4 44.9-65.3 39.6-137.5-7.5-103.4-144.3-163.4-132-185.9 7.7-13.9 60.8 8.1 111 17 198.8 35.4 340.2-136.5 378-99.9 35.8 34.5-55.5 218.3-205 329.8-76.8 57.7-172.4 98.7-191.6 76.5z"/><path class="h" d="m508.5 672.1c-16.7-19.4 44.3-65 39-136.8-7.6-103.5-144.3-163.4-132-185.9 7.7-13.9 60.8 8.1 111 17 198.8 35.4 340.2-136.5 378-99.9 35.8 34.5-55.4 218.5-205 329.8-76.3 57.1-171.7 98-191 75.8z"/><path class="i" d="m509.2 671.3c-16.7-19.3 43.6-64.6 38.4-136-7.7-103.5-144.3-163.5-132-185.9 7.6-13.9 60.8 8.1 111 17 198.7 35.4 340.1-136.5 378-99.9 35.8 34.6-55.3 218.8-205 329.8-75.9 56.6-171 97.3-190.4 75z"/><path class="j" d="m509.9 670.6c-16.8-19.3 42.9-64.4 37.6-135.3-7.7-103.6-144.2-163.5-132-185.9 7.7-14 60.8 8.1 111 17 198.8 35.3 340.2-136.5 378-99.9 35.9 34.6-55.3 218.8-205 329.7-75.4 56-170.1 96.8-189.6 74.4z"/><path class="k" d="m510.6 669.9c-16.9-19.3 42.2-64.1 37-134.7-7.8-103.6-144.3-163.4-132-185.8 7.6-14 60.8 8.1 111 17 198.7 35.3 340.1-136.5 378-99.9 35.9 34.7-55.3 219-205 329.7-75 55.4-169.4 96.1-189 73.7z"/><path class="l" d="m511.2 669.1c-16.8-19.2 41.6-63.7 36.4-133.9-7.8-103.7-144.3-163.5-132-185.8 7.6-14 60.8 8 111 17 198.7 35.3 340.1-136.5 378-99.9 36 34.7-55.2 219.2-205 329.7-74.5 54.9-168.6 95.4-188.4 72.9z"/><path class="m" d="m511.9 668.4c-16.8-19.2 40.9-63.4 35.7-133.2-7.8-103.7-144.3-163.5-132-185.8 7.6-14 60.8 8 111 17 198.7 35.3 340.1-136.5 378-99.9 36 34.7-55.1 219.5-205 329.6-74 54.4-167.8 94.9-187.7 72.3z"/><path class="n" d="m512.6 667.7c-16.9-19.2 40.2-63.1 35-132.5-7.9-103.8-144.3-163.5-132-185.8 7.6-14 60.8 8 111 17 198.7 35.3 340.1-136.5 378-99.9 36.1 34.8-55 219.7-205 329.6-73.5 53.8-167.1 94.2-187 71.6z"/><path class="o" d="m513.3 667c-16.9-19.3 39.5-62.8 34.3-131.8-7.9-103.8-144.2-163.5-132-185.8 7.7-14 60.8 8 111 17 198.7 35.3 340.1-136.5 378-99.9 36.1 34.9-54.9 220-205 329.6-73 53.3-166.3 93.6-186.3 70.9z"/><path class="p" d="m513.9 666.2c-16.9-19.2 38.9-62.4 33.7-131.1-8-103.8-144.2-163.5-132-185.7 7.6-14 60.8 8 111 16.9 198.7 35.4 340.1-136.4 378-99.8 36.2 34.9-54.8 220.2-205 329.5-72.5 52.8-165.5 93-185.7 70.2z"/><path class="q" d="m514.6 665.5c-16.9-19.2 38.2-62.1 33-130.4-8-103.9-144.2-163.5-132-185.7 7.7-14 60.8 8 111 17 198.7 35.3 340.1-136.5 378-99.9 36.2 34.9-54.7 220.4-205 329.5-72 52.3-164.7 92.3-185 69.5z"/><path class="r" d="m515.3 664.8c-17-19.2 37.5-61.8 32.3-129.7-8-103.9-144.2-163.5-132-185.7 7.7-14 60.8 8 111 16.9 198.7 35.3 340.1-136.4 378-99.8 36.3 35-54.6 220.7-205 329.5-71.5 51.7-163.9 91.7-184.3 68.8z"/><path class="s" d="m516 664c-17-19.1 36.8-61.4 31.6-128.9-8.1-104-144.2-163.5-132-185.7 7.7-14 60.8 8 111 16.9 198.7 35.3 340.1-136.4 378-99.8 36.3 35-54.4 220.9-205 329.5-71 51.2-163.2 91-183.6 68z"/><path class="t" d="m516.6 663.3c-17-19.1 36.2-61.1 31-128.3-8.1-104-144.2-163.4-132-185.6 7.7-14 60.8 8 111 16.9 198.7 35.3 340.2-136.3 378-99.8 36.4 35.1-54.3 221.2-205 329.4-70.5 50.7-162.4 90.5-183 67.4z"/><path class="u" d="m517.3 662.6c-17-19.1 35.5-60.9 30.3-127.6-8.1-104-144.2-163.5-132-185.6 7.7-14 60.8 8 111 16.9 198.7 35.3 340.2-136.3 378-99.8 36.4 35.1-54.2 221.4-205 329.4-70 50.2-161.6 89.8-182.3 66.7z"/><path class="v" d="m518 661.8c-17-19 34.8-60.5 29.6-126.8-8.2-104.1-144.1-163.5-132-185.7 7.7-13.9 60.8 8.1 111 17 198.8 35.3 340.2-136.3 378-99.8 36.5 35.2-54.1 221.7-205 329.4-69.5 49.6-160.8 89.1-181.6 65.9z"/><path class="w" d="m518.6 661.1c-17-19 34.1-60.2 29-126.1-8.2-104.2-144.1-163.5-132-185.7 7.7-13.9 60.8 8.1 111 17 198.8 35.3 340.2-136.3 378-99.8 36.5 35.2-54 221.9-205 329.4-69 49.1-160 88.5-181 65.2z"/><path class="x" d="m519.3 660.4c-17-19.1 33.5-59.9 28.3-125.4-8.2-104.2-144.1-163.6-132-185.7 7.7-13.9 60.8 8.1 111 17 198.8 35.3 340.2-136.3 378-99.8 36.6 35.3-53.8 222.2-205 329.3-68.5 48.6-159.3 87.9-180.3 64.6z"/><path class="y" d="m520 659.6c-17.1-19 32.8-59.5 27.6-124.7-8.3-104.2-144.1-163.5-132-185.6 7.7-13.9 60.8 8.1 111 17 198.8 35.3 340.2-136.3 378-99.8 36.7 35.3-53.7 222.4-205 329.3-68 48.1-158.5 87.2-179.6 63.8z"/><path class="z" d="m520.7 658.9c-17.1-19 32-59.2 26.9-124-8.3-104.3-144.1-163.5-132-185.6 7.7-13.9 60.8 8.1 111 17 198.8 35.3 340.2-136.3 378-99.8 36.7 35.3-53.6 222.7-205 329.3-67.5 47.5-157.7 86.6-178.9 63.1z"/><path class="A" d="m521.3 658.2c-17.1-19 31.4-58.9 26.4-123.3-8.4-104.3-144.2-163.5-132-185.6 7.6-13.9 60.8 8.1 111 17 198.7 35.3 340.1-136.3 378-99.8 36.7 35.4-53.6 223-205 329.2-67.1 47.1-157 86-178.4 62.5z"/><path class="B" d="m522 657.5c-17.1-19 30.8-58.6 25.7-122.6-8.5-104.4-144.1-163.6-132-185.6 7.6-13.9 60.8 8.1 111 17 198.7 35.2 340.1-136.3 378-99.8 36.7 35.4-53.5 223.2-205 329.2-66.6 46.6-156.2 85.4-177.7 61.8z"/><path class="C" d="m522.7 656.7c-17.1-18.9 30-58.3 25-121.9-8.5-104.4-144.1-163.5-132-185.5 7.6-13.9 60.8 8.1 111 17 198.7 35.2 340.1-136.3 378-99.8 36.8 35.5-53.3 223.5-205 329.2-66.1 46-155.5 84.7-177 61z"/><path class="D" d="m523.4 656c-17.2-18.9 29.3-58 24.3-121.2-8.5-104.4-144.1-163.5-132-185.5 7.6-13.9 60.8 8.1 111 17 198.7 35.2 340.1-136.3 378-99.8 36.8 35.5-53.2 223.8-205 329.2-65.6 45.5-154.7 84.1-176.3 60.3z"/><path class="E" d="m524 655.3c-17.1-18.9 28.7-57.7 23.7-120.5-8.6-104.5-144.1-163.5-132-185.5 7.6-13.9 60.8 8.1 111 16.9 198.7 35.3 340.1-136.2 378-99.7 36.9 35.6-53.1 224-205 329.1-65.1 45-153.9 83.5-175.7 59.7z"/><path class="F" d="m524.7 654.5c-17.2-18.8 28-57.3 23-119.7-8.6-104.6-144.1-163.6-132-185.5 7.7-13.9 60.8 8 111 16.9 198.7 35.3 340.1-136.2 378-99.7 36.9 35.6-52.9 224.3-205 329.1-64.6 44.5-153.1 82.8-175 58.9z"/><path class="G" d="m525.4 653.8c-17.2-18.9 27.3-57 22.3-119-8.6-104.6-144.1-163.6-132-185.5 7.7-13.9 60.8 8 111 16.9 198.7 35.3 340.1-136.2 378-99.7 37 35.7-52.8 224.6-205 329.1-64.1 44-152.3 82.2-174.3 58.2z"/><path class="H" d="m526 653.1c-17.2-18.9 26.7-56.7 21.7-118.4-8.7-104.6-144.1-163.5-132-185.4 7.7-13.9 60.8 8 111 16.9 198.7 35.3 340.1-136.2 378-99.7 37 35.7-52.7 224.9-205 329.1-63.6 43.4-151.6 81.5-173.7 57.5z"/><path class="I" d="m526.7 652.3c-17.2-18.8 26-56.3 21-117.6-8.7-104.7-144-163.5-132-185.4 7.7-13.9 60.8 8 111 16.9 198.7 35.3 340.1-136.1 378-99.7 37.1 35.8-52.5 225.1-205 329-63 43-150.8 81-173 56.8z"/><path class="J" d="m527.4 651.6c-17.3-18.8 25.3-56 20.3-116.9-8.8-104.7-144-163.6-132-185.4 7.7-14 60.8 8 111 16.9 198.8 35.3 340.2-136.2 378-99.7 37.2 35.8-52.4 225.4-205 329-62.5 42.4-150 80.3-172.3 56.1z"/><path class="K" d="m528.1 650.9c-17.3-18.8 24.6-55.7 19.6-116.2-8.8-104.8-144-163.6-132-185.4 7.7-14 60.8 8 111 16.9 198.7 35.3 340.2-136.1 378-99.7 37.2 35.9-52.3 225.7-205 329-62 41.9-149.2 79.6-171.6 55.4z"/><path class="L" d="m528.7 650.1c-17.2-18.7 24-55.4 19-115.5-8.8-104.8-144-163.5-132-185.3 7.7-14 60.8 8 111 16.9 198.8 35.2 340.2-136.1 378-99.7 37.3 35.9-52.1 226-205 328.9-61.5 41.5-148.4 79.1-171 54.7z"/><path class="M" d="m529.4 649.4c-17.3-18.7 23.3-55.1 18.3-114.8-8.9-104.8-144-163.5-132-185.3 7.7-14 60.8 8 111 16.9 198.8 35.2 340.2-136.1 378-99.7 37.3 35.9-52 226.3-205 328.9-61 40.9-147.7 78.4-170.3 54z"/><path class="N" d="m530.1 648.7c-17.3-18.7 22.6-54.8 17.6-114.1-8.9-104.9-144-163.6-132-185.4 7.7-13.9 60.8 8.1 111 17 198.8 35.2 340.2-136.1 378-99.7 37.4 36-51.8 226.6-205 328.9-60.5 40.4-146.9 77.7-169.6 53.3z"/><path class="O" d="m530.8 648c-17.4-18.7 21.9-54.5 17-113.4-9-105-144-163.6-132-185.4 7.6-13.9 60.8 8.1 111 17 198.7 35.2 340.1-136.1 378-99.7 37.3 36-51.8 226.9-205 328.9-60.1 39.9-146.2 77.1-169 52.6z"/><path class="P" d="m531.4 647.2c-17.3-18.6 21.3-54.1 16.4-112.6-9.1-105-144-163.6-132-185.4 7.6-13.9 60.8 8.1 111 17 198.7 35.2 340.1-136.1 378-99.6 37.4 36-51.6 227.1-205 328.7-59.6 39.5-145.4 76.5-168.4 51.9z"/><path class="Q" d="m532.1 646.5c-17.4-18.7 20.6-53.8 15.7-112-9.1-105-144-163.5-132-185.3 7.6-13.9 60.8 8.1 111 17 198.7 35.2 340.1-136.1 378-99.7 37.4 36.1-51.5 227.5-205 328.8-59 38.9-144.6 75.9-167.7 51.2z"/><path class="R" d="m532.8 645.8c-17.4-18.7 19.9-53.5 15-111.3-9.1-105.1-144-163.6-132-185.3 7.6-13.9 60.8 8.1 111 17 198.7 35.2 340.1-136.1 378-99.7 37.5 36.2-51.3 227.8-205 328.8-58.5 38.4-143.9 75.2-167 50.5z"/><path class="S" d="m533.5 645c-17.4-18.6 19.2-53.1 14.3-110.5-9.2-105.1-144-163.6-132-185.3 7.6-13.9 60.8 8.1 111 17 198.7 35.2 340.1-136.1 378-99.6 37.5 36.1-51.2 228-205 328.6-58 38-143.1 74.7-166.3 49.8z"/><path class="T" d="m534.1 644.3c-17.4-18.6 18.6-52.8 13.7-109.8-9.2-105.2-144-163.6-132-185.3 7.6-13.9 60.8 8 111 16.9 198.7 35.3 340.1-136 378-99.5 37.6 36.2-51 228.3-205 328.6-57.5 37.5-142.3 74-165.7 49.1z"/><path class="U" d="m534.8 643.6c-17.5-18.6 17.9-52.5 13-109.2-9.3-105.1-143.9-163.5-132-185.2 7.6-13.9 60.8 8 111 16.9 198.7 35.3 340.1-136 378-99.5 37.6 36.2-50.9 228.6-205 328.6-57 36.9-141.5 73.4-165 48.4z"/><path class="V" d="m535.5 642.8c-17.5-18.5 17.2-52.1 12.3-108.4-9.3-105.2-143.9-163.6-132-185.2 7.7-13.9 60.8 8 111 16.9 198.7 35.3 340.1-136 378-99.5 37.7 36.3-50.7 228.9-205 328.6-56.4 36.4-140.7 72.7-164.3 47.6z"/><path class="W" d="m536.1 642.1c-17.4-18.5 16.6-51.9 11.7-107.7-9.3-105.3-143.9-163.6-132-185.2 7.7-13.9 60.8 8 111 16.9 198.7 35.2 340.1-136 378-99.5 37.8 36.3-50.5 229.3-205 328.5-55.9 36-139.9 72.1-163.7 47z"/><path class="X" d="m536.8 641.4c-17.5-18.5 15.9-51.6 11-107-9.4-105.4-143.9-163.6-132-185.2 7.7-13.9 60.8 8 111 16.9 198.7 35.2 340.1-136 378-99.6 37.8 36.4-50.2 229.9-205 328.6-55.4 35.5-139.2 71.4-163 46.3z"/><path class="Y" d="m537.5 640.6c-17.5-18.5 15.2-51.2 10.3-106.3-9.4-105.3-143.9-163.6-132-185.1 7.7-13.9 60.8 8 111 16.9 198.7 35.2 340.2-136 378-99.5 37.9 36.4-50.1 230.1-205 328.5-54.8 35-138.4 70.8-162.3 45.5z"/><path class="Z" d="m538.2 639.9c-17.6-18.5 14.5-50.9 9.6-105.6-9.4-105.4-143.9-163.6-132-185.1 7.7-13.9 60.8 8 111 16.9 198.7 35.2 340.2-136 378-99.5 37.9 36.4-49.9 230.4-205 328.4-54.3 34.6-137.6 70.2-161.6 44.9z"/><path class="a0" d="m538.8 639.2c-17.5-18.5 13.9-50.6 9-104.9-9.5-105.5-143.8-163.6-132-185.1 7.7-13.9 60.8 8 111 16.9 198.8 35.2 340.2-136 378-99.5 38 36.5-49.8 230.6-205 328.4-53.8 34-136.8 69.6-161 44.2z"/><path class="a" d="m539.5 638.5c-17.5-18.5 13.2-50.3 8.3-104.2-9.5-105.5-143.8-163.6-132-185.1 7.7-13.9 60.8 8 111 16.9 198.8 35.2 340.2-135.9 378-99.5 38 36.5-49.7 230.9-205 328.4-53.3 33.5-136 68.9-160.3 43.5z"/><path class="a" d="m394 680c-70.6 6.5-126.7-31.6-182-69-20.6-14-53.6-36.6-87.5-73.5-38.5-42-77.2-101.6-101-156.7-23.9-55.2-32.7-105.8-11.5-129.8 18.3-20.8 59.8-22.7 111.7-11.6 51.9 11.2 114.2 35.4 174.1 67.3 119.8 63.6 230 157.3 228.2 236.3-1.3 59.1-35.5 95.5-35.5 95.5-33.5 35.7-80 39.9-96.5 41.5z"/><path class="a" d="m12 250.9c18.3-20.7 59.8-22.7 111.7-11.6 14.3 3.1 29.5 7.2 45.2 12.2 41 13 85.6 32.1 128.8 55.1 28.5 15.1 56.3 31.9 82.2 49.7 82.7 56.9 147.6 126.1 146.1 186.6q-0.2 5.6-0.7 11c-5 52.3-35.2 84.1-35.3 84.1-38.3 29.9-79.4 39.6-96.1 41.1-9.3 0.8-18.4 0.9-27.2 0.3-58-3.8-106.3-36.6-153.9-68.4-21-14.1-54.1-36.6-87.8-73.3-23.8-25.7-47.3-57.9-67.2-91.1-13-21.5-24.7-43.9-34.2-65.7-23.8-55-32.9-105.8-11.6-130z"/><path class="a" d="m12 250.9c18.3-20.8 59.8-22.8 111.6-11.6 14.4 3.1 29.6 7.2 45.3 12.2 41 13 85.5 32.1 128.8 55.1 28.4 15.1 56.3 31.9 82.2 49.7 81.7 56.3 147.7 125.7 146.1 186.5q-0.2 5.7-0.7 11c-5.1 52.1-35.7 83.7-35.9 83.8-38 29.6-78.7 39.1-95.6 40.6-9.2 0.9-18.3 0.9-27.1 0.4-57.9-3.8-106-36.3-153.1-67.5-21.4-14.2-54.6-36.7-88.2-73.2-24.1-25.9-47.6-58.2-67.4-91-12.8-21.4-24.7-43.8-34.2-65.8-23.9-54.9-33.2-105.9-11.8-130.2z"/><path class="a" d="m12 250.9c18.3-20.8 59.8-22.8 111.6-11.7 14.4 3.1 29.6 7.2 45.3 12.2 41 13.1 85.5 32.2 128.8 55.2 28.4 15.1 56.3 31.9 82.1 49.7 80.8 55.6 147.9 125.4 146.2 186.5q-0.2 5.6-0.7 10.9c-5.3 51.8-36.1 83.3-36.4 83.5-37.7 29.2-78.1 38.7-95.1 40.2-9.2 0.8-18.2 0.9-27 0.3-57.8-3.7-105.7-36-152.5-66.6-21.7-14.3-54.9-36.9-88.4-73-24.4-26.2-48-58.5-67.6-91.1-12.8-21.1-24.7-43.7-34.4-65.8-23.8-54.7-33.3-105.8-11.9-130.3z"/><path class="a" d="m12 250.9c18.3-20.9 59.8-22.9 111.6-11.7 14.4 3.1 29.5 7.2 45.2 12.2 41.1 13 85.6 32.1 128.8 55.1 28.5 15.1 56.3 32 82.2 49.8 79.8 55 148 125.1 146.2 186.4q-0.2 5.6-0.8 11c-5.3 51.5-36.5 82.8-36.8 83.1-37.5 28.9-77.6 38.2-94.7 39.7-9.2 0.8-18.1 0.9-26.8 0.3-57.8-3.6-105.5-35.6-151.8-65.7-22.1-14.4-55.3-36.9-88.8-72.7-24.7-26.5-48.4-58.9-67.8-91.1-12.6-21-24.6-43.6-34.4-65.9-23.9-54.6-33.6-105.9-12.1-130.5z"/><path class="a" d="m12 250.9c18.4-20.9 59.8-22.9 111.6-11.8 14.3 3.1 29.5 7.2 45.2 12.2 41 13.1 85.6 32.2 128.8 55.2 28.5 15.1 56.3 31.9 82.2 49.8 78.9 54.3 148.1 124.7 146.2 186.3q-0.2 5.7-0.8 11c-5.5 51.2-36.9 82.5-37.4 82.8-37.1 28.6-76.9 37.8-94.2 39.3q-13.6 1.1-26.6 0.3c-57.7-3.6-105.2-35.3-151.1-64.8-22.5-14.5-55.7-37-89.1-72.6-25.1-26.7-48.8-59.2-68-91.1-12.6-20.8-24.7-43.5-34.6-66-23.8-54.5-33.8-105.9-12.2-130.6z"/><path class="a" d="m12 250.9c18.4-21 59.8-23 111.5-11.8 14.4 3.1 29.6 7.2 45.3 12.1 41 13.1 85.6 32.3 128.8 55.2 28.4 15.2 56.3 32 82.1 49.9 78 53.7 148.3 124.4 146.2 186.3q-0.1 5.6-0.7 10.9c-5.7 50.9-37.4 82.1-37.9 82.5-36.9 28.3-76.3 37.3-93.8 38.8q-13.5 1.1-26.5 0.3c-57.5-3.5-104.9-34.9-150.3-63.9-22.9-14.6-56.2-37.1-89.4-72.3-25.5-27-49.3-59.7-68.3-91.2-12.4-20.6-24.6-43.4-34.6-66-23.9-54.4-34.1-106-12.4-130.8z"/><path class="a" d="m12 250.9c18.4-21 59.8-23 111.5-11.9 14.4 3.1 29.6 7.2 45.3 12.2 41 13.1 85.6 32.2 128.7 55.2 28.5 15.2 56.4 32 82.1 49.8 77.1 53.2 148.4 124.2 146.3 186.3q-0.2 5.6-0.8 11c-5.8 50.6-37.7 81.6-38.4 82.1-36.6 27.9-75.7 36.9-93.3 38.3q-13.4 1.1-26.3 0.4c-57.5-3.4-104.6-34.6-149.7-63-23.3-14.7-56.5-37.2-89.7-72.2-25.8-27.2-49.6-60-68.4-91.2-12.4-20.4-24.7-43.3-34.8-66.1-23.8-54.2-34.2-105.9-12.5-130.9z"/><path class="a" d="m12 250.9c18.4-21 59.8-23.1 111.5-12 14.4 3.1 29.6 7.2 45.2 12.2 41.1 13.1 85.7 32.3 128.8 55.3 28.5 15.2 56.4 32 82.1 49.8 76.1 52.5 148.6 123.9 146.3 186.2q-0.2 5.6-0.8 11c-5.9 50.4-38.2 81.3-38.9 81.8-36.3 27.6-75.1 36.4-92.8 37.9q-13.4 1.1-26.2 0.3c-57.4-3.3-104.4-34.2-149-62.1-23.7-14.8-57-37.2-90-72-26.2-27.4-50.1-60.3-68.7-91.2-12.2-20.2-24.6-43.1-34.8-66.1-23.9-54.1-34.5-106-12.7-131.1z"/><path class="a" d="m12 250.9c18.4-21.1 59.8-23.1 111.5-12 14.3 3.1 29.5 7.2 45.2 12.2 41.1 13.1 85.6 32.3 128.8 55.2 28.5 15.2 56.3 32.1 82.1 49.9 75.1 51.9 148.7 123.5 146.3 186.2q-0.2 5.6-0.9 10.9c-6 50.1-38.5 80.9-39.4 81.5-36 27.3-74.4 35.9-92.3 37.4q-13.3 1.1-26 0.3c-57.4-3.2-104.2-33.8-148.3-61.1-24.1-15-57.4-37.4-90.4-71.9-26.5-27.7-50.4-60.7-68.9-91.2-12.1-20-24.6-43-34.9-66.2-23.8-53.9-34.7-106-12.8-131.2z"/><path class="a" d="m12 250.9c18.4-21.1 59.8-23.2 111.4-12.1 14.4 3.1 29.6 7.2 45.3 12.2 41.1 13.1 85.6 32.4 128.7 55.3 28.5 15.3 56.4 32.1 82.1 49.9 74.3 51.2 148.9 123.2 146.4 186.1-0.1 3.8-0.5 7.4-0.9 11-6.1 49.8-38.9 80.4-39.9 81.1-35.8 27-73.8 35.5-91.9 37q-13.2 1-25.9 0.3c-57.2-3.2-103.9-33.4-147.5-60.3-24.5-15-57.9-37.4-90.7-71.6-26.9-27.9-50.8-61-69.1-91.2-12-19.9-24.7-43-35.1-66.3-23.9-53.8-34.9-106.1-12.9-131.4z"/><path class="a" d="m12 250.9c18.4-21.2 59.8-23.2 111.4-12.1 14.4 3.1 29.6 7.2 45.3 12.2 41.1 13.1 85.6 32.3 128.7 55.3 28.5 15.2 56.4 32.1 82.1 49.9 73.3 50.6 149 122.9 146.4 186.1q-0.2 5.5-0.9 10.9c-6.3 49.5-39.4 80-40.4 80.8-35.5 26.6-73.2 35-91.5 36.5q-13.1 1-25.7 0.3c-57.1-3.1-103.6-33-146.8-59.3-24.9-15.1-58.3-37.5-91-71.4-27.2-28.2-51.3-61.5-69.3-91.3-11.9-19.7-24.7-42.8-35.2-66.4-24-53.6-35.1-106-13.1-131.5z"/><path class="a" d="m12 250.9c18.4-21.2 59.8-23.3 111.4-12.2 14.4 3.1 29.6 7.2 45.2 12.2 41.1 13.2 85.7 32.4 128.8 55.3 28.5 15.3 56.4 32.2 82 49.9 72.4 50 149.1 122.6 146.5 186.1-0.2 3.7-0.5 7.4-1 10.9-6.4 49.2-39.7 79.7-40.9 80.5-35.2 26.3-72.6 34.6-91 36q-13 1-25.5 0.3c-57.1-2.9-103.4-32.6-146.2-58.4-25.2-15.2-58.7-37.5-91.3-71.2-27.5-28.5-51.6-61.8-69.5-91.3-11.8-19.5-24.6-42.7-35.3-66.4-23.9-53.5-35.3-106.1-13.2-131.7z"/><path class="a" d="m12 250.9c18.4-21.3 59.9-23.3 111.4-12.3 14.4 3.1 29.5 7.3 45.2 12.3 41.1 13.1 85.7 32.4 128.7 55.3 28.6 15.3 56.4 32.2 82.1 49.9 71.5 49.4 149.3 122.3 146.5 186q-0.3 5.6-1 11c-6.5 48.9-40.2 79.2-41.4 80.1-34.9 26-72 34.2-90.5 35.6q-13 0.9-25.4 0.3c-57-2.9-103.2-32.3-145.5-57.5-25.6-15.3-59.1-37.7-91.6-71.1-27.9-28.7-52.1-62.1-69.7-91.3-11.7-19.3-24.7-42.6-35.4-66.5-24-53.3-35.6-106.1-13.4-131.8z"/><path class="a" d="m12 250.9c18.4-21.3 59.8-23.4 111.4-12.3 14.3 3.1 29.5 7.2 45.2 12.2 41.1 13.2 85.7 32.4 128.7 55.4 28.6 15.2 56.4 32.1 82 49.9 70.6 48.8 149.4 122 146.6 185.9-0.2 3.8-0.5 7.4-1 11-6.6 48.6-40.6 78.8-41.9 79.8-34.7 25.7-71.4 33.7-90.1 35.1q-12.9 1-25.2 0.3c-56.9-2.8-103-31.8-144.8-56.6-26-15.4-59.6-37.7-92-70.9-28.2-28.9-52.4-62.5-69.9-91.3-11.6-19.2-24.6-42.5-35.5-66.5-23.9-53.2-35.7-106.2-13.5-132z"/><path class="a" d="m12 250.9c18.4-21.4 59.9-23.4 111.3-12.4 14.4 3.1 29.6 7.2 45.3 12.3 41.1 13.1 85.7 32.4 128.6 55.3 28.6 15.3 56.5 32.2 82.1 50 69.6 48.1 149.5 121.6 146.6 185.9q-0.3 5.6-1.1 10.9c-6.7 48.4-41 78.5-42.4 79.5-34.4 25.4-70.7 33.3-89.6 34.7q-12.8 0.9-25.1 0.3c-56.8-2.8-102.7-31.5-144-55.7-26.4-15.5-60-37.8-92.3-70.7-28.6-29.2-52.8-62.9-70.1-91.4-11.5-18.9-24.7-42.4-35.6-66.6-24-53.1-36-106.2-13.7-132.1z"/><path class="a" d="m12 250.9c18.5-21.4 59.9-23.5 111.3-12.4 14.4 3.1 29.6 7.2 45.2 12.2 41.2 13.2 85.8 32.5 128.7 55.4 28.6 15.3 56.4 32.2 82 50 68.7 47.5 149.7 121.3 146.6 185.8-0.1 3.7-0.5 7.4-1 11-6.9 48-41.4 78-42.9 79.1-34.2 25-70.2 32.8-89.2 34.2q-12.7 0.9-24.9 0.3c-56.7-2.7-102.5-31-143.3-54.8-26.9-15.6-60.5-37.8-92.7-70.5-28.9-29.4-53.2-63.2-70.3-91.4-11.4-18.8-24.6-42.2-35.7-66.6-24-53-36.2-106.2-13.8-132.3z"/><path class="a" d="m12 250.9c18.5-21.5 59.9-23.5 111.3-12.5 14.4 3.1 29.5 7.2 45.2 12.3 41.2 13.1 85.8 32.4 128.7 55.4 28.6 15.3 56.4 32.2 82 50 67.7 46.9 149.8 121 146.6 185.8-0.1 3.7-0.5 7.3-1 10.9-7 47.8-41.8 77.6-43.5 78.8-33.8 24.7-69.5 32.4-88.7 33.7-8.4 0.6-16.6 0.7-24.7 0.3-56.7-2.6-102.3-30.6-142.7-53.8-27.2-15.7-60.9-37.9-92.9-70.3-29.3-29.7-53.6-63.6-70.5-91.5-11.3-18.5-24.7-42.1-35.8-66.6-24-52.9-36.5-106.3-14-132.5z"/><path class="a" d="m12 250.9c18.5-21.5 59.9-23.6 111.3-12.5 14.4 3.1 29.5 7.2 45.2 12.2 41.2 13.2 85.8 32.5 128.6 55.5 28.7 15.3 56.5 32.2 82 50 66.9 46.2 149.9 120.6 146.7 185.7q-0.3 5.6-1.1 10.9c-7.1 47.5-42.2 77.2-43.9 78.5-33.6 24.4-68.9 31.9-88.3 33.3q-12.4 0.9-24.6 0.3c-56.5-2.5-102-30.2-141.9-53-27.6-15.8-61.3-38-93.2-70.1-29.7-29.9-54.1-63.9-70.8-91.4-11.2-18.5-24.6-42.1-35.9-66.8-24-52.7-36.6-106.3-14.1-132.6z"/><path class="a" d="m12 250.9c18.5-21.6 59.9-23.7 111.3-12.6 14.3 3.1 29.5 7.2 45.2 12.2 41.1 13.2 85.8 32.6 128.6 55.5 28.7 15.4 56.5 32.3 82 50 65.9 45.7 150 120.4 146.7 185.7q-0.3 5.6-1.1 11c-7.2 47.2-42.6 76.8-44.4 78.1-33.3 24.1-68.3 31.5-87.8 32.8q-12.4 0.9-24.5 0.3c-56.4-2.4-101.8-29.8-141.2-52-28-15.9-61.8-38.1-93.6-70-30-30.1-54.4-64.2-70.9-91.4-11.1-18.3-24.6-42-36-66.8-24-52.6-36.9-106.4-14.3-132.8z"/><path class="a" d="m12 250.9c18.5-21.6 59.9-23.7 111.2-12.7 14.4 3.1 29.6 7.3 45.2 12.3 41.2 13.2 85.8 32.6 128.7 55.5 28.6 15.3 56.5 32.3 81.9 50 65 45 150.2 120.1 146.8 185.7q-0.3 5.6-1.2 10.9c-7.3 46.9-43 76.4-44.9 77.8-33 23.7-67.7 31-87.3 32.3q-12.3 0.9-24.3 0.3c-56.4-2.3-101.7-29.3-140.5-51.1-28.5-15.9-62.3-38.1-93.9-69.7-30.5-30.4-54.9-64.7-71.2-91.5-11-18.1-24.6-41.9-36.1-66.9-24-52.4-37.1-106.3-14.5-132.9z"/><path class="a" d="m12 250.9c18.5-21.7 59.9-23.8 111.2-12.7 14.4 3.1 29.6 7.2 45.2 12.2 41.2 13.2 85.8 32.6 128.6 55.5 28.7 15.4 56.5 32.4 82 50.1 64 44.4 150.3 119.7 146.8 185.6q-0.3 5.6-1.2 10.9c-7.4 46.7-43.4 76-45.4 77.5-32.8 23.4-67.1 30.6-86.9 31.9q-12.2 0.8-24.1 0.3c-56.3-2.3-101.5-28.9-139.8-50.2-28.8-16.1-62.7-38.2-94.2-69.6-30.8-30.6-55.3-65-71.4-91.5-10.9-17.9-24.6-41.7-36.2-66.9-24-52.3-37.3-106.4-14.6-133.1z"/><path class="a" d="m12 250.9c18.5-21.7 59.9-23.8 111.2-12.8 14.4 3.1 29.5 7.2 45.2 12.3 41.2 13.2 85.8 32.6 128.6 55.5 28.7 15.4 56.5 32.3 81.9 50.1 63.2 43.7 150.5 119.4 146.9 185.5q-0.3 5.6-1.2 11c-7.6 46.3-43.8 75.6-45.9 77.1-32.5 23.1-66.5 30.1-86.5 31.4q-12.1 0.8-24 0.3c-56.2-2.2-101.2-28.4-139.1-49.3-29.2-16.1-63.1-38.2-94.5-69.4-31.1-30.8-55.6-65.3-71.6-91.5-10.8-17.7-24.6-41.6-36.3-67-24-52.2-37.5-106.4-14.7-133.2z"/><path class="a" d="m12 250.9c18.5-21.8 59.9-23.9 111.2-12.8 14.3 3.1 29.5 7.2 45.2 12.2 41.2 13.3 85.8 32.7 128.5 55.6 28.7 15.4 56.6 32.3 82 50 62.2 43.2 150.6 119.2 146.9 185.6q-0.4 5.5-1.3 10.9c-7.6 46.1-44.2 75.2-46.4 76.7-32.2 22.8-65.9 29.8-86 31-8 0.6-15.9 0.7-23.8 0.3-56.1-2.1-101-27.9-138.4-48.4-29.6-16.2-63.5-38.3-94.8-69.1-31.5-31.1-56.1-65.7-71.8-91.6-10.7-17.5-24.6-41.5-36.4-67-24.1-52.1-37.8-106.5-14.9-133.4z"/><path class="a" d="m12 250.9c18.5-21.8 59.9-23.9 111.1-12.9 14.4 3.1 29.6 7.2 45.2 12.3 41.3 13.2 85.9 32.6 128.6 55.6 28.7 15.4 56.6 32.3 81.9 50 61.3 42.6 150.8 118.8 147 185.5q-0.4 5.6-1.3 10.9c-7.7 45.8-44.6 74.8-46.9 76.5-32 22.4-65.3 29.2-85.5 30.5q-12 0.8-23.7 0.3c-56-2.1-100.9-27.5-137.7-47.5-30-16.3-64-38.4-95.2-69-31.2-30.6-56.4-66-72-91.6-10.6-17.3-24.6-41.4-36.5-67.1-24-51.9-38-106.5-15-133.5z"/><path class="a" d="m12 250.9c18.5-21.9 59.9-24 111.1-13 14.4 3.1 29.6 7.3 45.2 12.3 41.3 13.3 85.9 32.7 128.6 55.6 28.7 15.4 56.5 32.4 81.9 50.1 60.3 41.9 150.9 118.5 146.9 185.5q-0.3 5.5-1.2 10.9c-7.9 45.5-45.1 74.4-47.5 76.1-31.6 22.1-64.6 28.8-85 30.1-7.9 0.4-15.8 0.6-23.5 0.2-56-1.9-100.7-27-137-46.5-30.5-16.4-64.5-38.5-95.5-68.8-32.3-31.6-56.9-66.5-72.3-91.7-10.4-17.1-24.5-41.2-36.5-67.1-24.1-51.8-38.3-106.5-15.2-133.7z"/><path class="a" d="m12 250.9c18.6-21.9 59.9-24 111.1-13 14.4 3.1 29.6 7.2 45.2 12.3 41.3 13.2 85.9 32.7 128.5 55.6 28.8 15.4 56.6 32.4 82 50.1 59.3 41.3 151 118.2 146.9 185.4q-0.3 5.5-1.3 10.9c-7.9 45.2-45.4 74-47.9 75.7-31.4 21.9-64 28.4-84.6 29.7q-11.8 0.7-23.3 0.3c-55.9-1.9-100.5-26.6-136.3-45.7-30.9-16.4-64.9-38.5-95.9-68.6-32.5-31.8-57.2-66.8-72.4-91.7-10.4-16.9-24.5-41.1-36.7-67.2-24-51.6-38.4-106.5-15.3-133.8z"/><path class="a" d="m12 250.9c18.6-21.9 59.9-24.1 111.1-13.1 14.3 3.1 29.5 7.3 45.2 12.3 41.2 13.3 85.8 32.7 128.5 55.6 28.8 15.5 56.6 32.5 81.9 50.2 58.5 40.6 151.2 117.8 147 185.3q-0.3 5.6-1.3 10.9c-8.1 45-45.8 73.6-48.4 75.4-31.2 21.6-63.5 28-84.2 29.2-7.8 0.5-15.5 0.6-23.2 0.3-55.7-1.9-100.3-26.1-135.6-44.8-31.2-16.4-65.3-38.5-96.1-68.4-33-32-57.6-67.1-72.6-91.7-10.3-16.7-24.6-41-36.8-67.2-24.1-51.6-38.7-106.6-15.5-134z"/><path class="a" d="m12 250.9c18.6-22 59.9-24.1 111-13.1 14.4 3.1 29.6 7.2 45.2 12.2 41.3 13.3 85.9 32.8 128.6 55.7 28.7 15.5 56.6 32.5 81.8 50.2 57.6 40 151.4 117.5 147.1 185.3q-0.3 5.5-1.3 10.9c-8.2 44.6-46.3 73.2-49 75-30.9 21.3-62.8 27.5-83.7 28.8-7.7 0.4-15.4 0.5-23 0.2-55.7-1.8-100.1-25.6-134.9-43.8-31.7-16.6-65.8-38.6-96.5-68.2-33.3-32.2-58-67.5-72.8-91.7-10.2-16.6-24.5-41-36.9-67.4-24-51.4-38.9-106.6-15.7-134.1z"/><path class="a" d="m12 250.9c18.6-22 59.9-24.2 111-13.2 14.4 3.1 29.6 7.3 45.2 12.3 41.3 13.3 85.9 32.8 128.5 55.7 28.8 15.5 56.7 32.5 81.9 50.2 56.6 39.3 151.5 117.2 147.1 185.2q-0.4 5.5-1.4 10.9c-8.2 44.4-46.6 72.8-49.4 74.7-30.6 20.9-62.2 27.1-83.2 28.3q-11.5 0.6-22.9 0.3c-55.6-1.8-99.9-25.2-134.2-43-32.1-16.6-66.3-38.6-96.8-68-33.7-32.4-58.4-67.9-73-91.7-10.1-16.4-24.6-40.9-37-67.4-24.1-51.3-39.1-106.7-15.8-134.3z"/><path class="a" d="m12 250.9c18.6-22.1 59.9-24.2 111-13.3 14.4 3.1 29.6 7.3 45.2 12.3 41.3 13.3 85.9 32.9 128.5 55.8 28.8 15.4 56.6 32.5 81.9 50.1 55.6 38.8 151.6 117 147.1 185.2q-0.4 5.6-1.4 10.9c-8.4 44.1-47 72.5-49.9 74.4-30.4 20.6-61.6 26.6-82.8 27.8-7.6 0.5-15.2 0.5-22.7 0.3-55.5-1.7-99.8-24.7-133.5-42-32.5-16.7-66.7-38.7-97.1-67.9-34.1-32.6-58.8-68.2-73.3-91.7-9.9-16.2-24.5-40.7-37.1-67.5-24-51.1-39.3-106.6-15.9-134.4z"/><path class="a" d="m12 250.9c18.6-22.1 60-24.3 111-13.3 14.4 3.1 29.5 7.2 45.2 12.3 41.3 13.3 85.9 32.8 128.4 55.7 28.9 15.5 56.7 32.6 81.9 50.2 54.7 38.2 151.8 116.6 147.2 185.2q-0.4 5.5-1.4 10.9c-8.5 43.8-47.5 72-50.5 74-30.1 20.3-61 26.2-82.3 27.4-7.6 0.4-15.1 0.5-22.6 0.3-55.4-1.5-99.5-24.3-132.8-41.2-33.2-16.8-67.1-38.7-97.4-67.6-34.4-32.9-59.2-68.6-73.5-91.8-9.8-16-24.5-40.6-37.1-67.5-24.1-51-39.6-106.7-16.2-134.6z"/><path class="a" d="m12 250.9c18.6-22.2 60-24.3 110.9-13.4 14.4 3.1 29.6 7.3 45.2 12.3 41.4 13.3 86 32.9 128.5 55.8 28.8 15.5 56.7 32.5 81.9 50.2 53.8 37.5 152 116.3 147.2 185.1-0.3 3.7-0.8 7.3-1.5 10.9-8.6 43.5-47.8 71.6-50.9 73.7-29.8 20-60.4 25.7-81.9 26.9q-11.2 0.6-22.4 0.3c-55.3-1.4-99.4-23.8-132.1-40.2-33.3-16.8-67.6-38.9-97.7-67.5-34.8-33.1-59.6-69-73.7-91.8-9.8-15.9-24.5-40.5-37.3-67.6-24-50.9-39.7-106.7-16.2-134.7z"/><path class="a" d="m12 250.9c18.6-22.2 60-24.4 110.9-13.4 14.4 3.1 29.6 7.2 45.2 12.3 41.3 13.3 86 32.9 128.5 55.8 28.8 15.5 56.7 32.5 81.8 50.2 52.9 36.9 152.2 116 147.3 185.1q-0.4 5.5-1.5 10.8c-8.7 43.3-48.2 71.3-51.5 73.4-29.5 19.7-59.7 25.3-81.4 26.5q-11.1 0.6-22.2 0.2c-55.3-1.3-99.2-23.2-131.4-39.3-33.8-16.8-68.1-38.8-98-67.2-35.2-33.4-60.1-69.3-73.9-91.9-9.7-15.6-24.5-40.4-37.4-67.6-24.1-50.7-40-106.7-16.4-134.9z"/><path class="a" d="m11.9 250.9c18.7-22.3 60.1-24.5 111-13.5 14.4 3.1 29.6 7.3 45.2 12.3 41.3 13.4 86 32.9 128.5 55.8 28.8 15.6 56.6 32.6 81.8 50.3 51.9 36.2 152.3 115.6 147.3 185-0.3 3.7-0.8 7.3-1.6 10.9-8.7 42.9-48.6 70.8-51.9 73-29.3 19.4-59.1 24.9-81 26q-11 0.6-22.1 0.3c-55.1-1.3-99-22.8-130.6-38.4-34.2-16.9-68.6-38.9-98.4-67.1-35.6-33.6-60.4-69.7-74.1-91.9-9.6-15.5-24.5-40.3-37.5-67.7-24-50.6-40.2-106.7-16.6-135z"/><path class="a" d="m11.9 250.9c18.8-22.3 60.1-24.5 111-13.5 14.4 3.1 29.5 7.2 45.2 12.3 41.3 13.3 85.9 32.9 128.4 55.8 28.9 15.5 56.7 32.6 81.8 50.2 51.1 35.7 152.5 115.4 147.3 185q-0.4 5.5-1.5 10.9c-8.9 42.7-49 70.5-52.4 72.7-29.1 19.1-58.6 24.4-80.5 25.5q-11 0.6-22 0.3c-55.1-1.2-98.8-22.3-129.9-37.5-34.7-16.9-69-39-98.7-66.9-36-33.8-60.9-70-74.4-91.9-9.4-15.3-24.4-40.1-37.6-67.7-24-50.5-40.4-106.8-16.7-135.2z"/><path class="a" d="m11.9 250.9c18.8-22.4 60.1-24.6 111-13.6 14.3 3.1 29.5 7.3 45.2 12.3 41.3 13.4 85.9 33 128.4 55.9 28.9 15.5 56.7 32.6 81.8 50.2 50.1 35.1 152.6 115.1 147.3 185q-0.4 5.5-1.5 10.8c-9 42.5-49.4 70.1-53 72.4-28.8 18.8-57.9 24-80 25.1q-10.9 0.5-21.8 0.3c-55-1.1-98.7-21.8-129.3-36.6-35-16.9-69.4-39-99-66.7-36.3-34-61.2-70.4-74.5-91.9-9.4-15.2-24.5-40.1-37.7-67.9-24-50.3-40.7-106.8-16.9-135.3z"/><path class="a" d="m11.9 250.9c18.8-22.4 60.1-24.6 110.9-13.7 14.4 3.1 29.6 7.3 45.2 12.4 41.4 13.3 86 32.9 128.4 55.8 28.9 15.6 56.8 32.7 81.8 50.3 49.2 34.4 152.8 114.7 147.4 184.9q-0.4 5.5-1.6 10.9c-9 42.1-49.8 69.7-53.4 72-28.5 18.4-57.3 23.5-79.6 24.6q-10.8 0.5-21.6 0.3c-54.9-1-98.5-21.3-128.6-35.7-35.5-16.9-69.9-39.1-99.3-66.5-36.7-34.2-61.6-70.8-74.7-91.9-9.3-15-24.5-40-37.8-67.9-24.1-50.2-40.9-106.9-17.1-135.5z"/><path class="a" d="m11.9 250.9c18.8-22.5 60.1-24.7 110.9-13.7 14.4 3.1 29.6 7.2 45.2 12.3 41.4 13.4 86 33 128.4 55.9 28.9 15.6 56.8 32.7 81.8 50.3 48.2 33.8 152.9 114.4 147.4 184.8-0.3 3.7-0.8 7.3-1.6 10.9-9.1 41.8-50.2 69.3-54 71.7-28.2 18.1-56.6 23.1-79.1 24.1q-10.7 0.6-21.4 0.3c-54.9-0.9-98.3-20.8-127.9-34.7-35.9-17-70.3-39.1-99.7-66.4-37-34.4-62-71.1-74.9-91.9-9.1-14.8-24.4-39.9-37.9-68-24-50.1-41.1-106.9-17.2-135.6z"/><path class="a" d="m11.9 250.9c18.8-22.5 60.1-24.7 110.9-13.8 14.4 3.1 29.6 7.3 45.2 12.3 41.4 13.4 86 33.1 128.4 56 28.9 15.6 56.7 32.7 81.7 50.3 47.4 33.1 153.1 114.1 147.5 184.8q-0.4 5.5-1.6 10.8c-9.3 41.6-50.6 68.9-54.5 71.4-28 17.8-56.1 22.7-78.6 23.7q-10.7 0.5-21.4 0.3c-54.7-0.9-98.1-20.3-127.1-33.9-36.4-16.9-70.8-39.1-100-66.1-37.4-34.7-62.4-71.5-75.1-92-9.1-14.6-24.5-39.8-38-68-24.1-50-41.4-106.9-17.4-135.8z"/><path class="a" d="m11.9 250.9c18.8-22.6 60.1-24.8 110.9-13.8 14.4 3.1 29.5 7.2 45.1 12.3 41.4 13.4 86.1 33 128.4 55.9 28.9 15.6 56.8 32.8 81.8 50.4 46.4 32.5 153.2 113.7 147.5 184.7q-0.4 5.5-1.7 10.9c-9.3 41.2-51 68.5-54.9 71-27.8 17.5-55.5 22.2-78.2 23.2-7.1 0.3-14.1 0.4-21.2 0.3-54.6-0.8-98-19.8-126.4-32.9-36.8-17-71.3-39.3-100.3-66-37.9-34.9-62.9-71.8-75.4-92-8.9-14.4-24.4-39.6-38.1-68.1-24-49.8-41.5-106.9-17.5-135.9z"/><path class="a" d="m11.9 250.9c18.8-22.6 60.1-24.8 110.8-13.9 14.4 3.1 29.6 7.3 45.2 12.3 41.4 13.4 86.1 33.1 128.4 56 28.9 15.6 56.8 32.8 81.7 50.4 45.5 31.8 153.4 113.4 147.6 184.7q-0.5 5.4-1.7 10.8c-9.4 41-51.4 68.2-55.5 70.7-27.5 17.2-54.8 21.8-77.7 22.8-7 0.3-14 0.4-21 0.3-54.6-0.7-97.8-19.3-125.8-32.1-37.2-16.9-71.7-39.2-100.6-65.7-38.2-35.1-63.2-72.2-75.5-92.1-8.9-14.2-24.4-39.5-38.3-68.1-23.9-49.7-41.7-107-17.6-136.1z"/><path class="a" d="m11.9 250.9c18.8-22.7 60.1-24.9 110.8-13.9 14.4 3.1 29.6 7.2 45.2 12.3 41.4 13.4 86.1 33.1 128.3 55.9 29 15.7 56.9 32.8 81.8 50.4 44.5 31.3 153.5 113.2 147.6 184.7q-0.5 5.5-1.7 10.8c-9.5 40.8-51.8 67.8-56 70.4-27.2 16.9-54.2 21.3-77.3 22.3-6.9 0.3-13.9 0.4-20.9 0.3-54.4-0.7-97.6-18.8-125-31.1-37.7-17-72.2-39.3-100.9-65.6-38.6-35.3-63.7-72.5-75.8-92.1-8.7-14-24.3-39.4-38.3-68.2-23.9-49.6-42-107-17.8-136.2z"/><path class="a" d="m11.9 250.9c18.8-22.7 60.1-24.9 110.8-14 14.4 3.1 29.6 7.3 45.2 12.3 41.4 13.5 86 33.2 128.3 56 29 15.7 56.8 32.8 81.7 50.4 43.6 30.6 153.7 112.9 147.7 184.6q-0.5 5.5-1.8 10.9c-9.6 40.4-52.1 67.3-56.4 70-27 16.6-53.7 20.9-76.9 21.8-6.8 0.3-13.7 0.4-20.7 0.3-54.4-0.5-97.4-18.2-124.3-30.2-38.1-17-72.6-39.4-101.3-65.4-38.9-35.5-64-72.9-75.9-92.1-8.7-13.8-24.4-39.3-38.4-68.2-24-49.5-42.2-107-18-136.4z"/><path class="a" d="m11.9 250.9c18.8-22.8 60.1-25 110.8-14.1 14.4 3.1 29.5 7.3 45.2 12.4 41.4 13.4 86 33.1 128.3 56 29 15.7 56.8 32.8 81.7 50.4 42.7 30 153.8 112.5 147.7 184.5q-0.5 5.5-1.8 10.9c-9.7 40.2-52.6 67-57 69.7-26.7 16.3-53 20.5-76.3 21.4-6.8 0.3-13.7 0.3-20.6 0.3-54.3-0.5-97.3-17.8-123.6-29.3-38.6-17-73.1-39.4-101.6-65.2-39.4-35.8-64.4-73.3-76.2-92.1-8.5-13.7-24.3-39.3-38.5-68.3-23.9-49.4-42.4-107.1-18.1-136.6z"/><path class="a" d="m11.9 250.9c18.9-22.8 60.1-25.1 110.8-14.1 14.4 3.1 29.5 7.2 45.1 12.3 41.5 13.5 86.1 33.2 128.3 56 29 15.7 56.9 32.9 81.7 50.5 41.8 29.4 154 112.2 147.7 184.5q-0.4 5.5-1.8 10.8c-9.7 39.9-52.9 66.6-57.4 69.4-26.5 16-52.4 20-75.9 20.9-6.8 0.3-13.6 0.4-20.4 0.3-54.2-0.4-97.1-17.2-122.9-28.4-39.1-16.9-73.6-39.4-101.9-65-39.8-35.9-64.9-73.6-76.4-92.1-8.5-13.5-24.4-39.2-38.7-68.4-23.9-49.2-42.6-107.1-18.2-136.7z"/><path class="a" d="m11.9 250.9c18.9-22.9 60.1-25.1 110.7-14.2 14.4 3.1 29.6 7.3 45.2 12.4 41.5 13.4 86.1 33.2 128.3 56 29 15.7 56.9 32.9 81.7 50.5 40.8 28.7 154.1 111.9 147.7 184.4q-0.4 5.5-1.8 10.9c-9.8 39.6-53.3 66.2-58 69-26.2 15.6-51.7 19.6-75.4 20.5-6.7 0.2-13.4 0.3-20.2 0.2-54.2-0.3-97-16.6-122.2-27.4-39.5-16.9-74.1-39.5-102.3-64.9-40.1-36.1-65.2-73.9-76.6-92.1-8.3-13.3-24.3-39.1-38.7-68.4-23.9-49.2-42.8-107.2-18.3-136.9z"/><path class="a" d="m11.9 250.9c18.9-22.9 60.1-25.2 110.7-14.3 14.4 3.2 29.6 7.3 45.2 12.4 41.4 13.5 86.1 33.2 128.3 56.1 29 15.7 56.8 32.9 81.6 50.4 39.9 28.2 154.3 111.6 147.8 184.4q-0.4 5.5-1.8 10.9c-10 39.3-53.8 65.9-58.5 68.7-26 15.3-51.2 19.1-75 20-6.6 0.2-13.3 0.3-20.1 0.2-54-0.2-96.7-16.1-121.5-26.5-40-16.8-74.5-39.5-102.5-64.7-40.6-36.3-65.7-74.3-76.9-92.1-8.2-13.1-24.3-38.9-38.8-68.5-23.9-49-43-107.2-18.5-137z"/><path class="a" d="m11.9 250.9c18.9-22.9 60.1-25.2 110.7-14.3 14.4 3.1 29.5 7.3 45.1 12.4 41.5 13.4 86.2 33.2 128.3 56.1 29.1 15.7 56.9 32.9 81.7 50.4 38.9 27.5 154.4 111.3 147.8 184.4q-0.5 5.5-1.9 10.8c-10 39.1-54.1 65.5-58.9 68.4-25.8 15.1-50.6 18.8-74.6 19.6-6.5 0.2-13.2 0.2-19.9 0.2-54-0.1-96.6-15.6-120.8-25.6-40.4-16.8-75-39.6-102.9-64.5-40.9-36.5-66-74.7-77-92.2-8.1-12.9-24.3-38.8-38.9-68.5-24-48.9-43.3-107.2-18.7-137.2z"/><path class="a" d="m11.9 250.9c18.9-23 60.1-25.3 110.7-14.4 14.4 3.2 29.5 7.3 45.1 12.4 41.5 13.5 86.2 33.3 128.3 56.1 29 15.8 56.9 33 81.6 50.5 38.1 26.9 154.6 111 147.9 184.3q-0.5 5.5-1.9 10.9c-10 38.8-54.5 65.1-59.5 68-25.5 14.7-49.9 18.3-74.1 19.1-6.5 0.2-13 0.3-19.7 0.2-53.9 0-96.5-15-120.1-24.7-40.9-16.7-75.5-39.6-103.2-64.3-41.3-36.7-66.4-75-77.3-92.2-8-12.7-24.2-38.7-39-68.6-23.9-48.7-43.5-107.2-18.8-137.3z"/><path class="a" d="m11.9 250.9c18.9-23 60.1-25.3 110.6-14.4 14.4 3.1 29.6 7.3 45.2 12.3 41.5 13.5 86.2 33.3 128.3 56.2 29 15.7 56.9 32.9 81.6 50.5 37.1 26.2 154.7 110.6 147.9 184.3q-0.5 5.4-1.9 10.8c-10.2 38.5-54.9 64.7-60 67.6-25.3 14.5-49.3 17.9-73.7 18.7-6.4 0.2-12.9 0.3-19.6 0.3-53.8 0-96.2-14.6-119.4-23.9-41.3-16.5-75.9-39.6-103.5-64-41.7-36.9-66.8-75.4-77.4-92.3-7.9-12.6-24.3-38.6-39.1-68.6-24-48.6-43.8-107.3-19-137.5z"/><path class="a" d="m11.9 250.9c18.9-23.1 60.1-25.4 110.6-14.5 14.4 3.1 29.6 7.3 45.2 12.4 41.5 13.5 86.1 33.3 128.2 56.2 29.1 15.7 57 32.9 81.7 50.5 36.1 25.6 154.8 110.3 147.9 184.2q-0.5 5.5-2 10.8c-10.2 38.3-55.3 64.4-60.5 67.4-25 14.1-48.7 17.4-73.1 18.2-6.4 0.2-12.9 0.2-19.5 0.2-53.7 0.1-96.1-14-118.7-22.9-41.8-16.5-76.3-39.6-103.8-63.9-42.1-37.1-67.2-75.7-77.7-92.2-7.8-12.4-24.2-38.5-39.2-68.7-23.9-48.5-43.9-107.3-19.1-137.7z"/><path class="a" d="m370.5 635.5c-53.6 0.1-95.9-13.5-118-22-108.2-41.9-165.2-129.4-182-156-20-31.7-99.2-157-58.6-206.6 24.3-29.7 85.5-25 155.8-2.2 70.2 22.9 149.4 63.9 209.8 106.8 37 26.2 166.9 118.5 146 195-10.4 37.9-55.7 64-61 67-31.1 17.4-60 17.9-92 18z"/><path class="b" d="m394 680c-70.6 6.5-126.7-31.6-182-69-20.6-14-53.6-36.6-87.5-73.5-38.5-42-77.2-101.6-101-156.7-23.9-55.2-32.7-105.8-11.5-129.8 18.3-20.8 59.8-22.7 111.7-11.6 51.9 11.2 114.2 35.4 174.1 67.3 119.8 63.6 230 157.3 228.2 236.3-1.3 59.1-35.5 95.5-35.5 95.5-33.5 35.7-80 39.9-96.5 41.5z"/><path class="c" d="m12 250.9c18.3-20.7 59.8-22.7 111.7-11.6 14.3 3.1 29.5 7.2 45.2 12.2 41 13 85.6 32.1 128.8 55.1 28.5 15.1 56.3 31.9 82.2 49.7 82.7 56.9 147.6 126.1 146.1 186.6q-0.2 5.6-0.7 11c-5 52.3-35.2 84.1-35.3 84.1-38.3 29.9-79.4 39.6-96.1 41.1-9.3 0.8-18.4 0.9-27.2 0.3-58-3.8-106.3-36.6-153.9-68.4-21-14.1-54.1-36.6-87.8-73.3-23.8-25.7-47.3-57.9-67.2-91.1-13-21.5-24.7-43.9-34.2-65.7-23.8-55-32.9-105.8-11.6-130z"/><path class="d" d="m12 250.9c18.3-20.8 59.8-22.8 111.6-11.6 14.4 3.1 29.6 7.2 45.3 12.2 41 13 85.5 32.1 128.8 55.1 28.4 15.1 56.3 31.9 82.2 49.7 81.7 56.3 147.7 125.7 146.1 186.5q-0.2 5.7-0.7 11c-5.1 52.1-35.7 83.7-35.9 83.8-38 29.6-78.7 39.1-95.6 40.6-9.2 0.9-18.3 0.9-27.1 0.4-57.9-3.8-106-36.3-153.1-67.5-21.4-14.2-54.6-36.7-88.2-73.2-24.1-25.9-47.6-58.2-67.4-91-12.8-21.4-24.7-43.8-34.2-65.8-23.9-54.9-33.2-105.9-11.8-130.2z"/><path class="e" d="m12 250.9c18.3-20.8 59.8-22.8 111.6-11.7 14.4 3.1 29.6 7.2 45.3 12.2 41 13.1 85.5 32.2 128.8 55.2 28.4 15.1 56.3 31.9 82.1 49.7 80.8 55.6 147.9 125.4 146.2 186.5q-0.2 5.6-0.7 10.9c-5.3 51.8-36.1 83.3-36.4 83.5-37.7 29.2-78.1 38.7-95.1 40.2-9.2 0.8-18.2 0.9-27 0.3-57.8-3.7-105.7-36-152.5-66.6-21.7-14.3-54.9-36.9-88.4-73-24.4-26.2-48-58.5-67.6-91.1-12.8-21.1-24.7-43.7-34.4-65.8-23.8-54.7-33.3-105.8-11.9-130.3z"/><path class="f" d="m12 250.9c18.3-20.9 59.8-22.9 111.6-11.7 14.4 3.1 29.5 7.2 45.2 12.2 41.1 13 85.6 32.1 128.8 55.1 28.5 15.1 56.3 32 82.2 49.8 79.8 55 148 125.1 146.2 186.4q-0.2 5.6-0.8 11c-5.3 51.5-36.5 82.8-36.8 83.1-37.5 28.9-77.6 38.2-94.7 39.7-9.2 0.8-18.1 0.9-26.8 0.3-57.8-3.6-105.5-35.6-151.8-65.7-22.1-14.4-55.3-36.9-88.8-72.7-24.7-26.5-48.4-58.9-67.8-91.1-12.6-21-24.6-43.6-34.4-65.9-23.9-54.6-33.6-105.9-12.1-130.5z"/><path class="g" d="m12 250.9c18.4-20.9 59.8-22.9 111.6-11.8 14.3 3.1 29.5 7.2 45.2 12.2 41 13.1 85.6 32.2 128.8 55.2 28.5 15.1 56.3 31.9 82.2 49.8 78.9 54.3 148.1 124.7 146.2 186.3q-0.2 5.7-0.8 11c-5.5 51.2-36.9 82.5-37.4 82.8-37.1 28.6-76.9 37.8-94.2 39.3q-13.6 1.1-26.6 0.3c-57.7-3.6-105.2-35.3-151.1-64.8-22.5-14.5-55.7-37-89.1-72.6-25.1-26.7-48.8-59.2-68-91.1-12.6-20.8-24.7-43.5-34.6-66-23.8-54.5-33.8-105.9-12.2-130.6z"/><path class="h" d="m12 250.9c18.4-21 59.8-23 111.5-11.8 14.4 3.1 29.6 7.2 45.3 12.1 41 13.1 85.6 32.3 128.8 55.2 28.4 15.2 56.3 32 82.1 49.9 78 53.7 148.3 124.4 146.2 186.3q-0.1 5.6-0.7 10.9c-5.7 50.9-37.4 82.1-37.9 82.5-36.9 28.3-76.3 37.3-93.8 38.8q-13.5 1.1-26.5 0.3c-57.5-3.5-104.9-34.9-150.3-63.9-22.9-14.6-56.2-37.1-89.4-72.3-25.5-27-49.3-59.7-68.3-91.2-12.4-20.6-24.6-43.4-34.6-66-23.9-54.4-34.1-106-12.4-130.8z"/><path class="i" d="m12 250.9c18.4-21 59.8-23 111.5-11.9 14.4 3.1 29.6 7.2 45.3 12.2 41 13.1 85.6 32.2 128.7 55.2 28.5 15.2 56.4 32 82.1 49.8 77.1 53.2 148.4 124.2 146.3 186.3q-0.2 5.6-0.8 11c-5.8 50.6-37.7 81.6-38.4 82.1-36.6 27.9-75.7 36.9-93.3 38.3q-13.4 1.1-26.3 0.4c-57.5-3.4-104.6-34.6-149.7-63-23.3-14.7-56.5-37.2-89.7-72.2-25.8-27.2-49.6-60-68.4-91.2-12.4-20.4-24.7-43.3-34.8-66.1-23.8-54.2-34.2-105.9-12.5-130.9z"/><path class="j" d="m12 250.9c18.4-21 59.8-23.1 111.5-12 14.4 3.1 29.6 7.2 45.2 12.2 41.1 13.1 85.7 32.3 128.8 55.3 28.5 15.2 56.4 32 82.1 49.8 76.1 52.5 148.6 123.9 146.3 186.2q-0.2 5.6-0.8 11c-5.9 50.4-38.2 81.3-38.9 81.8-36.3 27.6-75.1 36.4-92.8 37.9q-13.4 1.1-26.2 0.3c-57.4-3.3-104.4-34.2-149-62.1-23.7-14.8-57-37.2-90-72-26.2-27.4-50.1-60.3-68.7-91.2-12.2-20.2-24.6-43.1-34.8-66.1-23.9-54.1-34.5-106-12.7-131.1z"/><path class="k" d="m12 250.9c18.4-21.1 59.8-23.1 111.5-12 14.3 3.1 29.5 7.2 45.2 12.2 41.1 13.1 85.6 32.3 128.8 55.2 28.5 15.2 56.3 32.1 82.1 49.9 75.1 51.9 148.7 123.5 146.3 186.2q-0.2 5.6-0.9 10.9c-6 50.1-38.5 80.9-39.4 81.5-36 27.3-74.4 35.9-92.3 37.4q-13.3 1.1-26 0.3c-57.4-3.2-104.2-33.8-148.3-61.1-24.1-15-57.4-37.4-90.4-71.9-26.5-27.7-50.4-60.7-68.9-91.2-12.1-20-24.6-43-34.9-66.2-23.8-53.9-34.7-106-12.8-131.2z"/><path class="l" d="m12 250.9c18.4-21.1 59.8-23.2 111.4-12.1 14.4 3.1 29.6 7.2 45.3 12.2 41.1 13.1 85.6 32.4 128.7 55.3 28.5 15.3 56.4 32.1 82.1 49.9 74.3 51.2 148.9 123.2 146.4 186.1-0.1 3.8-0.5 7.4-0.9 11-6.1 49.8-38.9 80.4-39.9 81.1-35.8 27-73.8 35.5-91.9 37q-13.2 1-25.9 0.3c-57.2-3.2-103.9-33.4-147.5-60.3-24.5-15-57.9-37.4-90.7-71.6-26.9-27.9-50.8-61-69.1-91.2-12-19.9-24.7-43-35.1-66.3-23.9-53.8-34.9-106.1-12.9-131.4z"/><path class="m" d="m12 250.9c18.4-21.2 59.8-23.2 111.4-12.1 14.4 3.1 29.6 7.2 45.3 12.2 41.1 13.1 85.6 32.3 128.7 55.3 28.5 15.2 56.4 32.1 82.1 49.9 73.3 50.6 149 122.9 146.4 186.1q-0.2 5.5-0.9 10.9c-6.3 49.5-39.4 80-40.4 80.8-35.5 26.6-73.2 35-91.5 36.5q-13.1 1-25.7 0.3c-57.1-3.1-103.6-33-146.8-59.3-24.9-15.1-58.3-37.5-91-71.4-27.2-28.2-51.3-61.5-69.3-91.3-11.9-19.7-24.7-42.8-35.2-66.4-24-53.6-35.1-106-13.1-131.5z"/><path class="n" d="m12 250.9c18.4-21.2 59.8-23.3 111.4-12.2 14.4 3.1 29.6 7.2 45.2 12.2 41.1 13.2 85.7 32.4 128.8 55.3 28.5 15.3 56.4 32.2 82 49.9 72.4 50 149.1 122.6 146.5 186.1-0.2 3.7-0.5 7.4-1 10.9-6.4 49.2-39.7 79.7-40.9 80.5-35.2 26.3-72.6 34.6-91 36q-13 1-25.5 0.3c-57.1-2.9-103.4-32.6-146.2-58.4-25.2-15.2-58.7-37.5-91.3-71.2-27.5-28.5-51.6-61.8-69.5-91.3-11.8-19.5-24.6-42.7-35.3-66.4-23.9-53.5-35.3-106.1-13.2-131.7z"/><path class="o" d="m12 250.9c18.4-21.3 59.9-23.3 111.4-12.3 14.4 3.1 29.5 7.3 45.2 12.3 41.1 13.1 85.7 32.4 128.7 55.3 28.6 15.3 56.4 32.2 82.1 49.9 71.5 49.4 149.3 122.3 146.5 186q-0.3 5.6-1 11c-6.5 48.9-40.2 79.2-41.4 80.1-34.9 26-72 34.2-90.5 35.6q-13 0.9-25.4 0.3c-57-2.9-103.2-32.3-145.5-57.5-25.6-15.3-59.1-37.7-91.6-71.1-27.9-28.7-52.1-62.1-69.7-91.3-11.7-19.3-24.7-42.6-35.4-66.5-24-53.3-35.6-106.1-13.4-131.8z"/><path class="p" d="m12 250.9c18.4-21.3 59.8-23.4 111.4-12.3 14.3 3.1 29.5 7.2 45.2 12.2 41.1 13.2 85.7 32.4 128.7 55.4 28.6 15.2 56.4 32.1 82 49.9 70.6 48.8 149.4 122 146.6 185.9-0.2 3.8-0.5 7.4-1 11-6.6 48.6-40.6 78.8-41.9 79.8-34.7 25.7-71.4 33.7-90.1 35.1q-12.9 1-25.2 0.3c-56.9-2.8-103-31.8-144.8-56.6-26-15.4-59.6-37.7-92-70.9-28.2-28.9-52.4-62.5-69.9-91.3-11.6-19.2-24.6-42.5-35.5-66.5-23.9-53.2-35.7-106.2-13.5-132z"/><path class="q" d="m12 250.9c18.4-21.4 59.9-23.4 111.3-12.4 14.4 3.1 29.6 7.2 45.3 12.3 41.1 13.1 85.7 32.4 128.6 55.3 28.6 15.3 56.5 32.2 82.1 50 69.6 48.1 149.5 121.6 146.6 185.9q-0.3 5.6-1.1 10.9c-6.7 48.4-41 78.5-42.4 79.5-34.4 25.4-70.7 33.3-89.6 34.7q-12.8 0.9-25.1 0.3c-56.8-2.8-102.7-31.5-144-55.7-26.4-15.5-60-37.8-92.3-70.7-28.6-29.2-52.8-62.9-70.1-91.4-11.5-18.9-24.7-42.4-35.6-66.6-24-53.1-36-106.2-13.7-132.1z"/><path class="r" d="m12 250.9c18.5-21.4 59.9-23.5 111.3-12.4 14.4 3.1 29.6 7.2 45.2 12.2 41.2 13.2 85.8 32.5 128.7 55.4 28.6 15.3 56.4 32.2 82 50 68.7 47.5 149.7 121.3 146.6 185.8-0.1 3.7-0.5 7.4-1 11-6.9 48-41.4 78-42.9 79.1-34.2 25-70.2 32.8-89.2 34.2q-12.7 0.9-24.9 0.3c-56.7-2.7-102.5-31-143.3-54.8-26.9-15.6-60.5-37.8-92.7-70.5-28.9-29.4-53.2-63.2-70.3-91.4-11.4-18.8-24.6-42.2-35.7-66.6-24-53-36.2-106.2-13.8-132.3z"/><path class="s" d="m12 250.9c18.5-21.5 59.9-23.5 111.3-12.5 14.4 3.1 29.5 7.2 45.2 12.3 41.2 13.1 85.8 32.4 128.7 55.4 28.6 15.3 56.4 32.2 82 50 67.7 46.9 149.8 121 146.6 185.8-0.1 3.7-0.5 7.3-1 10.9-7 47.8-41.8 77.6-43.5 78.8-33.8 24.7-69.5 32.4-88.7 33.7-8.4 0.6-16.6 0.7-24.7 0.3-56.7-2.6-102.3-30.6-142.7-53.8-27.2-15.7-60.9-37.9-92.9-70.3-29.3-29.7-53.6-63.6-70.5-91.5-11.3-18.5-24.7-42.1-35.8-66.6-24-52.9-36.5-106.3-14-132.5z"/><path class="t" d="m12 250.9c18.5-21.5 59.9-23.6 111.3-12.5 14.4 3.1 29.5 7.2 45.2 12.2 41.2 13.2 85.8 32.5 128.6 55.5 28.7 15.3 56.5 32.2 82 50 66.9 46.2 149.9 120.6 146.7 185.7q-0.3 5.6-1.1 10.9c-7.1 47.5-42.2 77.2-43.9 78.5-33.6 24.4-68.9 31.9-88.3 33.3q-12.4 0.9-24.6 0.3c-56.5-2.5-102-30.2-141.9-53-27.6-15.8-61.3-38-93.2-70.1-29.7-29.9-54.1-63.9-70.8-91.4-11.2-18.5-24.6-42.1-35.9-66.8-24-52.7-36.6-106.3-14.1-132.6z"/><path class="u" d="m12 250.9c18.5-21.6 59.9-23.7 111.3-12.6 14.3 3.1 29.5 7.2 45.2 12.2 41.1 13.2 85.8 32.6 128.6 55.5 28.7 15.4 56.5 32.3 82 50 65.9 45.7 150 120.4 146.7 185.7q-0.3 5.6-1.1 11c-7.2 47.2-42.6 76.8-44.4 78.1-33.3 24.1-68.3 31.5-87.8 32.8q-12.4 0.9-24.5 0.3c-56.4-2.4-101.8-29.8-141.2-52-28-15.9-61.8-38.1-93.6-70-30-30.1-54.4-64.2-70.9-91.4-11.1-18.3-24.6-42-36-66.8-24-52.6-36.9-106.4-14.3-132.8z"/><path class="v" d="m12 250.9c18.5-21.6 59.9-23.7 111.2-12.7 14.4 3.1 29.6 7.3 45.2 12.3 41.2 13.2 85.8 32.6 128.7 55.5 28.6 15.3 56.5 32.3 81.9 50 65 45 150.2 120.1 146.8 185.7q-0.3 5.6-1.2 10.9c-7.3 46.9-43 76.4-44.9 77.8-33 23.7-67.7 31-87.3 32.3q-12.3 0.9-24.3 0.3c-56.4-2.3-101.7-29.3-140.5-51.1-28.5-15.9-62.3-38.1-93.9-69.7-30.5-30.4-54.9-64.7-71.2-91.5-11-18.1-24.6-41.9-36.1-66.9-24-52.4-37.1-106.3-14.5-132.9z"/><path class="w" d="m12 250.9c18.5-21.7 59.9-23.8 111.2-12.7 14.4 3.1 29.6 7.2 45.2 12.2 41.2 13.2 85.8 32.6 128.6 55.5 28.7 15.4 56.5 32.4 82 50.1 64 44.4 150.3 119.7 146.8 185.6q-0.3 5.6-1.2 10.9c-7.4 46.7-43.4 76-45.4 77.5-32.8 23.4-67.1 30.6-86.9 31.9q-12.2 0.8-24.1 0.3c-56.3-2.3-101.5-28.9-139.8-50.2-28.8-16.1-62.7-38.2-94.2-69.6-30.8-30.6-55.3-65-71.4-91.5-10.9-17.9-24.6-41.7-36.2-66.9-24-52.3-37.3-106.4-14.6-133.1z"/><path class="x" d="m12 250.9c18.5-21.7 59.9-23.8 111.2-12.8 14.4 3.1 29.5 7.2 45.2 12.3 41.2 13.2 85.8 32.6 128.6 55.5 28.7 15.4 56.5 32.3 81.9 50.1 63.2 43.7 150.5 119.4 146.9 185.5q-0.3 5.6-1.2 11c-7.6 46.3-43.8 75.6-45.9 77.1-32.5 23.1-66.5 30.1-86.5 31.4q-12.1 0.8-24 0.3c-56.2-2.2-101.2-28.4-139.1-49.3-29.2-16.1-63.1-38.2-94.5-69.4-31.1-30.8-55.6-65.3-71.6-91.5-10.8-17.7-24.6-41.6-36.3-67-24-52.2-37.5-106.4-14.7-133.2z"/><path class="y" d="m12 250.9c18.5-21.8 59.9-23.9 111.2-12.8 14.3 3.1 29.5 7.2 45.2 12.2 41.2 13.3 85.8 32.7 128.5 55.6 28.7 15.4 56.6 32.3 82 50 62.2 43.2 150.6 119.2 146.9 185.6q-0.4 5.5-1.3 10.9c-7.6 46.1-44.2 75.2-46.4 76.7-32.2 22.8-65.9 29.8-86 31-8 0.6-15.9 0.7-23.8 0.3-56.1-2.1-101-27.9-138.4-48.4-29.6-16.2-63.5-38.3-94.8-69.1-31.5-31.1-56.1-65.7-71.8-91.6-10.7-17.5-24.6-41.5-36.4-67-24.1-52.1-37.8-106.5-14.9-133.4z"/><path class="z" d="m12 250.9c18.5-21.8 59.9-23.9 111.1-12.9 14.4 3.1 29.6 7.2 45.2 12.3 41.3 13.2 85.9 32.6 128.6 55.6 28.7 15.4 56.6 32.3 81.9 50 61.3 42.6 150.8 118.8 147 185.5q-0.4 5.6-1.3 10.9c-7.7 45.8-44.6 74.8-46.9 76.5-32 22.4-65.3 29.2-85.5 30.5q-12 0.8-23.7 0.3c-56-2.1-100.9-27.5-137.7-47.5-30-16.3-64-38.4-95.2-69-31.2-30.6-56.4-66-72-91.6-10.6-17.3-24.6-41.4-36.5-67.1-24-51.9-38-106.5-15-133.5z"/><path class="A" d="m12 250.9c18.5-21.9 59.9-24 111.1-13 14.4 3.1 29.6 7.3 45.2 12.3 41.3 13.3 85.9 32.7 128.6 55.6 28.7 15.4 56.5 32.4 81.9 50.1 60.3 41.9 150.9 118.5 146.9 185.5q-0.3 5.5-1.2 10.9c-7.9 45.5-45.1 74.4-47.5 76.1-31.6 22.1-64.6 28.8-85 30.1-7.9 0.4-15.8 0.6-23.5 0.2-56-1.9-100.7-27-137-46.5-30.5-16.4-64.5-38.5-95.5-68.8-32.3-31.6-56.9-66.5-72.3-91.7-10.4-17.1-24.5-41.2-36.5-67.1-24.1-51.8-38.3-106.5-15.2-133.7z"/><path class="B" d="m12 250.9c18.6-21.9 59.9-24 111.1-13 14.4 3.1 29.6 7.2 45.2 12.3 41.3 13.2 85.9 32.7 128.5 55.6 28.8 15.4 56.6 32.4 82 50.1 59.3 41.3 151 118.2 146.9 185.4q-0.3 5.5-1.3 10.9c-7.9 45.2-45.4 74-47.9 75.7-31.4 21.9-64 28.4-84.6 29.7q-11.8 0.7-23.3 0.3c-55.9-1.9-100.5-26.6-136.3-45.7-30.9-16.4-64.9-38.5-95.9-68.6-32.5-31.8-57.2-66.8-72.4-91.7-10.4-16.9-24.5-41.1-36.7-67.2-24-51.6-38.4-106.5-15.3-133.8z"/><path class="C" d="m12 250.9c18.6-21.9 59.9-24.1 111.1-13.1 14.3 3.1 29.5 7.3 45.2 12.3 41.2 13.3 85.8 32.7 128.5 55.6 28.8 15.5 56.6 32.5 81.9 50.2 58.5 40.6 151.2 117.8 147 185.3q-0.3 5.6-1.3 10.9c-8.1 45-45.8 73.6-48.4 75.4-31.2 21.6-63.5 28-84.2 29.2-7.8 0.5-15.5 0.6-23.2 0.3-55.7-1.9-100.3-26.1-135.6-44.8-31.2-16.4-65.3-38.5-96.1-68.4-33-32-57.6-67.1-72.6-91.7-10.3-16.7-24.6-41-36.8-67.2-24.1-51.6-38.7-106.6-15.5-134z"/><path class="D" d="m12 250.9c18.6-22 59.9-24.1 111-13.1 14.4 3.1 29.6 7.2 45.2 12.2 41.3 13.3 85.9 32.8 128.6 55.7 28.7 15.5 56.6 32.5 81.8 50.2 57.6 40 151.4 117.5 147.1 185.3q-0.3 5.5-1.3 10.9c-8.2 44.6-46.3 73.2-49 75-30.9 21.3-62.8 27.5-83.7 28.8-7.7 0.4-15.4 0.5-23 0.2-55.7-1.8-100.1-25.6-134.9-43.8-31.7-16.6-65.8-38.6-96.5-68.2-33.3-32.2-58-67.5-72.8-91.7-10.2-16.6-24.5-41-36.9-67.4-24-51.4-38.9-106.6-15.7-134.1z"/><path class="E" d="m12 250.9c18.6-22 59.9-24.2 111-13.2 14.4 3.1 29.6 7.3 45.2 12.3 41.3 13.3 85.9 32.8 128.5 55.7 28.8 15.5 56.7 32.5 81.9 50.2 56.6 39.3 151.5 117.2 147.1 185.2q-0.4 5.5-1.4 10.9c-8.2 44.4-46.6 72.8-49.4 74.7-30.6 20.9-62.2 27.1-83.2 28.3q-11.5 0.6-22.9 0.3c-55.6-1.8-99.9-25.2-134.2-43-32.1-16.6-66.3-38.6-96.8-68-33.7-32.4-58.4-67.9-73-91.7-10.1-16.4-24.6-40.9-37-67.4-24.1-51.3-39.1-106.7-15.8-134.3z"/><path class="F" d="m12 250.9c18.6-22.1 59.9-24.2 111-13.3 14.4 3.1 29.6 7.3 45.2 12.3 41.3 13.3 85.9 32.9 128.5 55.8 28.8 15.4 56.6 32.5 81.9 50.1 55.6 38.8 151.6 117 147.1 185.2q-0.4 5.6-1.4 10.9c-8.4 44.1-47 72.5-49.9 74.4-30.4 20.6-61.6 26.6-82.8 27.8-7.6 0.5-15.2 0.5-22.7 0.3-55.5-1.7-99.8-24.7-133.5-42-32.5-16.7-66.7-38.7-97.1-67.9-34.1-32.6-58.8-68.2-73.3-91.7-9.9-16.2-24.5-40.7-37.1-67.5-24-51.1-39.3-106.6-15.9-134.4z"/><path class="G" d="m12 250.9c18.6-22.1 60-24.3 111-13.3 14.4 3.1 29.5 7.2 45.2 12.3 41.3 13.3 85.9 32.8 128.4 55.7 28.9 15.5 56.7 32.6 81.9 50.2 54.7 38.2 151.8 116.6 147.2 185.2q-0.4 5.5-1.4 10.9c-8.5 43.8-47.5 72-50.5 74-30.1 20.3-61 26.2-82.3 27.4-7.6 0.4-15.1 0.5-22.6 0.3-55.4-1.5-99.5-24.3-132.8-41.2-33.2-16.8-67.1-38.7-97.4-67.6-34.4-32.9-59.2-68.6-73.5-91.8-9.8-16-24.5-40.6-37.1-67.5-24.1-51-39.6-106.7-16.2-134.6z"/><path class="H" d="m12 250.9c18.6-22.2 60-24.3 110.9-13.4 14.4 3.1 29.6 7.3 45.2 12.3 41.4 13.3 86 32.9 128.5 55.8 28.8 15.5 56.7 32.5 81.9 50.2 53.8 37.5 152 116.3 147.2 185.1-0.3 3.7-0.8 7.3-1.5 10.9-8.6 43.5-47.8 71.6-50.9 73.7-29.8 20-60.4 25.7-81.9 26.9q-11.2 0.6-22.4 0.3c-55.3-1.4-99.4-23.8-132.1-40.2-33.3-16.8-67.6-38.9-97.7-67.5-34.8-33.1-59.6-69-73.7-91.8-9.8-15.9-24.5-40.5-37.3-67.6-24-50.9-39.7-106.7-16.2-134.7z"/><path class="I" d="m12 250.9c18.6-22.2 60-24.4 110.9-13.4 14.4 3.1 29.6 7.2 45.2 12.3 41.3 13.3 86 32.9 128.5 55.8 28.8 15.5 56.7 32.5 81.8 50.2 52.9 36.9 152.2 116 147.3 185.1q-0.4 5.5-1.5 10.8c-8.7 43.3-48.2 71.3-51.5 73.4-29.5 19.7-59.7 25.3-81.4 26.5q-11.1 0.6-22.2 0.2c-55.3-1.3-99.2-23.2-131.4-39.3-33.8-16.8-68.1-38.8-98-67.2-35.2-33.4-60.1-69.3-73.9-91.9-9.7-15.6-24.5-40.4-37.4-67.6-24.1-50.7-40-106.7-16.4-134.9z"/><path class="J" d="m11.9 250.9c18.7-22.3 60.1-24.5 111-13.5 14.4 3.1 29.6 7.3 45.2 12.3 41.3 13.4 86 32.9 128.5 55.8 28.8 15.6 56.6 32.6 81.8 50.3 51.9 36.2 152.3 115.6 147.3 185-0.3 3.7-0.8 7.3-1.6 10.9-8.7 42.9-48.6 70.8-51.9 73-29.3 19.4-59.1 24.9-81 26q-11 0.6-22.1 0.3c-55.1-1.3-99-22.8-130.6-38.4-34.2-16.9-68.6-38.9-98.4-67.1-35.6-33.6-60.4-69.7-74.1-91.9-9.6-15.5-24.5-40.3-37.5-67.7-24-50.6-40.2-106.7-16.6-135z"/><path class="K" d="m11.9 250.9c18.8-22.3 60.1-24.5 111-13.5 14.4 3.1 29.5 7.2 45.2 12.3 41.3 13.3 85.9 32.9 128.4 55.8 28.9 15.5 56.7 32.6 81.8 50.2 51.1 35.7 152.5 115.4 147.3 185q-0.4 5.5-1.5 10.9c-8.9 42.7-49 70.5-52.4 72.7-29.1 19.1-58.6 24.4-80.5 25.5q-11 0.6-22 0.3c-55.1-1.2-98.8-22.3-129.9-37.5-34.7-16.9-69-39-98.7-66.9-36-33.8-60.9-70-74.4-91.9-9.4-15.3-24.4-40.1-37.6-67.7-24-50.5-40.4-106.8-16.7-135.2z"/><path class="L" d="m11.9 250.9c18.8-22.4 60.1-24.6 111-13.6 14.3 3.1 29.5 7.3 45.2 12.3 41.3 13.4 85.9 33 128.4 55.9 28.9 15.5 56.7 32.6 81.8 50.2 50.1 35.1 152.6 115.1 147.3 185q-0.4 5.5-1.5 10.8c-9 42.5-49.4 70.1-53 72.4-28.8 18.8-57.9 24-80 25.1q-10.9 0.5-21.8 0.3c-55-1.1-98.7-21.8-129.3-36.6-35-16.9-69.4-39-99-66.7-36.3-34-61.2-70.4-74.5-91.9-9.4-15.2-24.5-40.1-37.7-67.9-24-50.3-40.7-106.8-16.9-135.3z"/><path class="M" d="m11.9 250.9c18.8-22.4 60.1-24.6 110.9-13.7 14.4 3.1 29.6 7.3 45.2 12.4 41.4 13.3 86 32.9 128.4 55.8 28.9 15.6 56.8 32.7 81.8 50.3 49.2 34.4 152.8 114.7 147.4 184.9q-0.4 5.5-1.6 10.9c-9 42.1-49.8 69.7-53.4 72-28.5 18.4-57.3 23.5-79.6 24.6q-10.8 0.5-21.6 0.3c-54.9-1-98.5-21.3-128.6-35.7-35.5-16.9-69.9-39.1-99.3-66.5-36.7-34.2-61.6-70.8-74.7-91.9-9.3-15-24.5-40-37.8-67.9-24.1-50.2-40.9-106.9-17.1-135.5z"/><path class="N" d="m11.9 250.9c18.8-22.5 60.1-24.7 110.9-13.7 14.4 3.1 29.6 7.2 45.2 12.3 41.4 13.4 86 33 128.4 55.9 28.9 15.6 56.8 32.7 81.8 50.3 48.2 33.8 152.9 114.4 147.4 184.8-0.3 3.7-0.8 7.3-1.6 10.9-9.1 41.8-50.2 69.3-54 71.7-28.2 18.1-56.6 23.1-79.1 24.1q-10.7 0.6-21.4 0.3c-54.9-0.9-98.3-20.8-127.9-34.7-35.9-17-70.3-39.1-99.7-66.4-37-34.4-62-71.1-74.9-91.9-9.1-14.8-24.4-39.9-37.9-68-24-50.1-41.1-106.9-17.2-135.6z"/><path class="O" d="m11.9 250.9c18.8-22.5 60.1-24.7 110.9-13.8 14.4 3.1 29.6 7.3 45.2 12.3 41.4 13.4 86 33.1 128.4 56 28.9 15.6 56.7 32.7 81.7 50.3 47.4 33.1 153.1 114.1 147.5 184.8q-0.4 5.5-1.6 10.8c-9.3 41.6-50.6 68.9-54.5 71.4-28 17.8-56.1 22.7-78.6 23.7q-10.7 0.5-21.4 0.3c-54.7-0.9-98.1-20.3-127.1-33.9-36.4-16.9-70.8-39.1-100-66.1-37.4-34.7-62.4-71.5-75.1-92-9.1-14.6-24.5-39.8-38-68-24.1-50-41.4-106.9-17.4-135.8z"/><path class="P" d="m11.9 250.9c18.8-22.6 60.1-24.8 110.9-13.8 14.4 3.1 29.5 7.2 45.1 12.3 41.4 13.4 86.1 33 128.4 55.9 28.9 15.6 56.8 32.8 81.8 50.4 46.4 32.5 153.2 113.7 147.5 184.7q-0.4 5.5-1.7 10.9c-9.3 41.2-51 68.5-54.9 71-27.8 17.5-55.5 22.2-78.2 23.2-7.1 0.3-14.1 0.4-21.2 0.3-54.6-0.8-98-19.8-126.4-32.9-36.8-17-71.3-39.3-100.3-66-37.9-34.9-62.9-71.8-75.4-92-8.9-14.4-24.4-39.6-38.1-68.1-24-49.8-41.5-106.9-17.5-135.9z"/><path class="Q" d="m11.9 250.9c18.8-22.6 60.1-24.8 110.8-13.9 14.4 3.1 29.6 7.3 45.2 12.3 41.4 13.4 86.1 33.1 128.4 56 28.9 15.6 56.8 32.8 81.7 50.4 45.5 31.8 153.4 113.4 147.6 184.7q-0.5 5.4-1.7 10.8c-9.4 41-51.4 68.2-55.5 70.7-27.5 17.2-54.8 21.8-77.7 22.8-7 0.3-14 0.4-21 0.3-54.6-0.7-97.8-19.3-125.8-32.1-37.2-16.9-71.7-39.2-100.6-65.7-38.2-35.1-63.2-72.2-75.5-92.1-8.9-14.2-24.4-39.5-38.3-68.1-23.9-49.7-41.7-107-17.6-136.1z"/><path class="R" d="m11.9 250.9c18.8-22.7 60.1-24.9 110.8-13.9 14.4 3.1 29.6 7.2 45.2 12.3 41.4 13.4 86.1 33.1 128.3 55.9 29 15.7 56.9 32.8 81.8 50.4 44.5 31.3 153.5 113.2 147.6 184.7q-0.5 5.5-1.7 10.8c-9.5 40.8-51.8 67.8-56 70.4-27.2 16.9-54.2 21.3-77.3 22.3-6.9 0.3-13.9 0.4-20.9 0.3-54.4-0.7-97.6-18.8-125-31.1-37.7-17-72.2-39.3-100.9-65.6-38.6-35.3-63.7-72.5-75.8-92.1-8.7-14-24.3-39.4-38.3-68.2-23.9-49.6-42-107-17.8-136.2z"/><path class="S" d="m11.9 250.9c18.8-22.7 60.1-24.9 110.8-14 14.4 3.1 29.6 7.3 45.2 12.3 41.4 13.5 86 33.2 128.3 56 29 15.7 56.8 32.8 81.7 50.4 43.6 30.6 153.7 112.9 147.7 184.6q-0.5 5.5-1.8 10.9c-9.6 40.4-52.1 67.3-56.4 70-27 16.6-53.7 20.9-76.9 21.8-6.8 0.3-13.7 0.4-20.7 0.3-54.4-0.5-97.4-18.2-124.3-30.2-38.1-17-72.6-39.4-101.3-65.4-38.9-35.5-64-72.9-75.9-92.1-8.7-13.8-24.4-39.3-38.4-68.2-24-49.5-42.2-107-18-136.4z"/><path class="T" d="m11.9 250.9c18.8-22.8 60.1-25 110.8-14.1 14.4 3.1 29.5 7.3 45.2 12.4 41.4 13.4 86 33.1 128.3 56 29 15.7 56.8 32.8 81.7 50.4 42.7 30 153.8 112.5 147.7 184.5q-0.5 5.5-1.8 10.9c-9.7 40.2-52.6 67-57 69.7-26.7 16.3-53 20.5-76.3 21.4-6.8 0.3-13.7 0.3-20.6 0.3-54.3-0.5-97.3-17.8-123.6-29.3-38.6-17-73.1-39.4-101.6-65.2-39.4-35.8-64.4-73.3-76.2-92.1-8.5-13.7-24.3-39.3-38.5-68.3-23.9-49.4-42.4-107.1-18.1-136.6z"/><path class="U" d="m11.9 250.9c18.9-22.8 60.1-25.1 110.8-14.1 14.4 3.1 29.5 7.2 45.1 12.3 41.5 13.5 86.1 33.2 128.3 56 29 15.7 56.9 32.9 81.7 50.5 41.8 29.4 154 112.2 147.7 184.5q-0.4 5.5-1.8 10.8c-9.7 39.9-52.9 66.6-57.4 69.4-26.5 16-52.4 20-75.9 20.9-6.8 0.3-13.6 0.4-20.4 0.3-54.2-0.4-97.1-17.2-122.9-28.4-39.1-16.9-73.6-39.4-101.9-65-39.8-35.9-64.9-73.6-76.4-92.1-8.5-13.5-24.4-39.2-38.7-68.4-23.9-49.2-42.6-107.1-18.2-136.7z"/><path class="V" d="m11.9 250.9c18.9-22.9 60.1-25.1 110.7-14.2 14.4 3.1 29.6 7.3 45.2 12.4 41.5 13.4 86.1 33.2 128.3 56 29 15.7 56.9 32.9 81.7 50.5 40.8 28.7 154.1 111.9 147.7 184.4q-0.4 5.5-1.8 10.9c-9.8 39.6-53.3 66.2-58 69-26.2 15.6-51.7 19.6-75.4 20.5-6.7 0.2-13.4 0.3-20.2 0.2-54.2-0.3-97-16.6-122.2-27.4-39.5-16.9-74.1-39.5-102.3-64.9-40.1-36.1-65.2-73.9-76.6-92.1-8.3-13.3-24.3-39.1-38.7-68.4-23.9-49.2-42.8-107.2-18.3-136.9z"/><path class="W" d="m11.9 250.9c18.9-22.9 60.1-25.2 110.7-14.3 14.4 3.2 29.6 7.3 45.2 12.4 41.4 13.5 86.1 33.2 128.3 56.1 29 15.7 56.8 32.9 81.6 50.4 39.9 28.2 154.3 111.6 147.8 184.4q-0.4 5.5-1.8 10.9c-10 39.3-53.8 65.9-58.5 68.7-26 15.3-51.2 19.1-75 20-6.6 0.2-13.3 0.3-20.1 0.2-54-0.2-96.7-16.1-121.5-26.5-40-16.8-74.5-39.5-102.5-64.7-40.6-36.3-65.7-74.3-76.9-92.1-8.2-13.1-24.3-38.9-38.8-68.5-23.9-49-43-107.2-18.5-137z"/><path class="X" d="m11.9 250.9c18.9-22.9 60.1-25.2 110.7-14.3 14.4 3.1 29.5 7.3 45.1 12.4 41.5 13.4 86.2 33.2 128.3 56.1 29.1 15.7 56.9 32.9 81.7 50.4 38.9 27.5 154.4 111.3 147.8 184.4q-0.5 5.5-1.9 10.8c-10 39.1-54.1 65.5-58.9 68.4-25.8 15.1-50.6 18.8-74.6 19.6-6.5 0.2-13.2 0.2-19.9 0.2-54-0.1-96.6-15.6-120.8-25.6-40.4-16.8-75-39.6-102.9-64.5-40.9-36.5-66-74.7-77-92.2-8.1-12.9-24.3-38.8-38.9-68.5-24-48.9-43.3-107.2-18.7-137.2z"/><path class="Y" d="m11.9 250.9c18.9-23 60.1-25.3 110.7-14.4 14.4 3.2 29.5 7.3 45.1 12.4 41.5 13.5 86.2 33.3 128.3 56.1 29 15.8 56.9 33 81.6 50.5 38.1 26.9 154.6 111 147.9 184.3q-0.5 5.5-1.9 10.9c-10 38.8-54.5 65.1-59.5 68-25.5 14.7-49.9 18.3-74.1 19.1-6.5 0.2-13 0.3-19.7 0.2-53.9 0-96.5-15-120.1-24.7-40.9-16.7-75.5-39.6-103.2-64.3-41.3-36.7-66.4-75-77.3-92.2-8-12.7-24.2-38.7-39-68.6-23.9-48.7-43.5-107.2-18.8-137.3z"/><path class="Z" d="m11.9 250.9c18.9-23 60.1-25.3 110.6-14.4 14.4 3.1 29.6 7.3 45.2 12.3 41.5 13.5 86.2 33.3 128.3 56.2 29 15.7 56.9 32.9 81.6 50.5 37.1 26.2 154.7 110.6 147.9 184.3q-0.5 5.4-1.9 10.8c-10.2 38.5-54.9 64.7-60 67.6-25.3 14.5-49.3 17.9-73.7 18.7-6.4 0.2-12.9 0.3-19.6 0.3-53.8 0-96.2-14.6-119.4-23.9-41.3-16.5-75.9-39.6-103.5-64-41.7-36.9-66.8-75.4-77.4-92.3-7.9-12.6-24.3-38.6-39.1-68.6-24-48.6-43.8-107.3-19-137.5z"/><path class="a0" d="m11.9 250.9c18.9-23.1 60.1-25.4 110.6-14.5 14.4 3.1 29.6 7.3 45.2 12.4 41.5 13.5 86.1 33.3 128.2 56.2 29.1 15.7 57 32.9 81.7 50.5 36.1 25.6 154.8 110.3 147.9 184.2q-0.5 5.5-2 10.8c-10.2 38.3-55.3 64.4-60.5 67.4-25 14.1-48.7 17.4-73.1 18.2-6.4 0.2-12.9 0.2-19.5 0.2-53.7 0.1-96.1-14-118.7-22.9-41.8-16.5-76.3-39.6-103.8-63.9-42.1-37.1-67.2-75.7-77.7-92.2-7.8-12.4-24.2-38.5-39.2-68.7-23.9-48.5-43.9-107.3-19.1-137.7z"/><path class="a" d="m370.5 635.5c-53.6 0.1-95.9-13.5-118-22-108.2-41.9-165.2-129.4-182-156-20-31.7-99.2-157-58.6-206.6 24.3-29.7 85.5-25 155.8-2.2 70.2 22.9 149.4 63.9 209.8 106.8 37 26.2 166.9 118.5 146 195-10.4 37.9-55.7 64-61 67-31.1 17.4-60 17.9-92 18z"/><path class="a1" d="m410.5 344.4c-2.6 4-47.9-24.6-110-53.9-71.5-33.8-108.7-46.1-135-57-79.8-33.4-92.8-39-99-55-15.6-40.4 23.7-93.2 51-119 97.2-91.8 269.7-56.4 274-31 2.2 12.6-38.4 19.5-59 66-2.8 6.3-11 25.3-10 50 1.6 37.7 23.6 65 22 66-1.2 0.6-11-14.4-27-37-16.1-23-19.4-26.8-22-26-6.7 1.8-5.5 33.4-1 55 18.5 88.2 119.8 136.2 116 142z"/><path class="a1" d="m392.5 319.4c7 3.9 14.4 7.1 19 9.1 6.5 2.7 16.2 6.6 30 11 5.6 1.7 28.7 8.5 64 15 17 3.1 34.4 6.2 58 7 2.7 0 18.9 0.5 38-1 62.4-5.2 113-28 113-28 31.6-14.3 70.2-31.8 99-73 11.4-16.3 25.4-36.3 27-63 4.4-70.9-84.5-124.8-103-136-102.2-62.1-225.8-46-229-30-1.3 6.7 19.7 9.1 42 37 8.7 10.8 24.5 34.1 28 67 1.1 9.8 2.7 27-4 47-13.9 41.4-52.4 60.8-64 66-51.3 22.8-101.4 3.1-102 7-0.6 3.5 43.4 18.8 95 15 12.6-1 24.2-2.3 39-7 40.2-12.8 64.3-40.7 64-41-0.2-0.3-0.3 1.6-5.3 6.6-43.3 43.2-91.7 52.4-91.7 52.4-42.3 8-75.7-3.6-91-9-32.4-11.7-53.6-29.5-61-36-38.9-34.8-49.3-74.5-56-72-5.4 2-0.5 28.3 3 42 5.1 19.6 13 33.4 18 42 11.5 19.7 23.6 32.3 32 41 10.8 11.1 21.3 21.8 38 31z"/><path  d="m392.1 319.6c7.1 3.9 14.4 7 19 9 6.5 2.8 16.2 6.7 30 11 5.7 1.8 28.7 8.5 64 15 17 3.1 34.5 6.2 58 7 2.7 0.1 19 0.6 38-1 62.4-5.1 113-28 113-28 31.7-14.3 70.2-31.7 99-73 11.4-16.3 25.4-36.3 27-63 4.4-70.9-84.4-124.8-103-136-102.2-62-225.8-45.9-229-30-1.3 6.7 19.7 9.2 42 37 8.7 10.8 24.5 34.2 28 67 1.1 9.9 2.7 27.1-4 47-13.9 41.4-52.4 60.8-64 66-51.3 22.9-101.3 3.2-102 7-0.5 3.6 43.5 18.9 95 15 12.6-0.9 24.2-2.3 39-7 40.3-12.8 64.3-40.7 64-41-0.2-0.2-0.3 1.6-5.3 6.7-43.3 43.2-91.7 52.3-91.7 52.3-42.3 8-75.7-3.5-91-9-32.4-11.6-53.6-29.4-61-36-38.9-34.7-49.3-74.5-56-72-5.3 2-0.5 28.4 3 42 5.2 19.7 13.1 33.5 18 42 11.6 19.7 23.7 32.4 32 41 10.8 11.2 21.4 21.9 38 31z"/><path  d="m392.1 319.6c7.1 3.9 14.4 7 19 9 6.5 2.8 16.2 6.7 30 11 5.7 1.8 28.7 8.5 64 15 17 3.1 34.5 6.2 58 7 2.7 0.1 19 0.6 38-1 62.4-5.1 113-28 113-28 31.7-14.3 70.2-31.7 99-73 11.4-16.3 25.4-36.3 27-63 4.4-70.9-84.4-124.8-103-136-102.2-62-225.8-45.9-229-30-1.3 6.7 19.7 9.2 42 37 8.7 10.8 24.5 34.2 28 67 1.1 9.9 2.7 27.1-4 47-13.9 41.4-52.4 60.8-64 66-51.3 22.9-101.3 3.2-102 7-0.5 3.6 43.5 18.9 95 15 12.6-0.9 24.2-2.3 39-7 40.3-12.8 64.3-40.7 64-41-0.2-0.2-0.3 1.6-5.3 6.7-43.3 43.2-91.7 52.3-91.7 52.3-42.3 8-75.7-3.5-91-9-32.4-11.6-53.6-29.4-61-36-38.9-34.7-49.3-74.5-56-72-5.3 2-0.5 28.4 3 42 5.2 19.7 13.1 33.5 18 42 11.6 19.7 23.7 32.4 32 41 10.8 11.2 21.4 21.9 38 31z"/><path class="a1" d="m450 247.4c-62.2 0-112.5-46.4-112.5-104 0-57.5 50.3-104 112.5-104 62.2 0 112.5 46.5 112.5 104 0 57.6-50.3 104-112.5 104z"/><path class="a2" d="m450.2 247.1c-62.1 0-112.2-46.4-112.2-103.8 0-57.4 50.1-103.8 112.2-103.8 62.1 0 112.2 46.4 112.2 103.8 0 57.4-50.1 103.8-112.2 103.8z"/><path class="a3" d="m450.4 246.8c-61.9 0-111.9-46.3-111.9-103.6 0-57.3 50-103.6 111.9-103.6 61.9 0 112 46.3 112 103.6 0 57.3-50.1 103.6-112 103.6z"/><path class="a4" d="m450.6 246.5c-61.7 0-111.7-46.2-111.7-103.4 0-57.2 50-103.4 111.7-103.4 61.8 0 111.7 46.2 111.7 103.4 0 57.2-49.9 103.4-111.7 103.4z"/><path class="a5" d="m450.8 246.2c-61.6 0-111.4-46.2-111.4-103.3 0-57 49.8-103.2 111.4-103.2 61.6 0 111.4 46.2 111.4 103.3 0 57-49.8 103.2-111.4 103.2z"/><path class="a6" d="m451 245.9c-61.4 0-111.1-46.1-111.1-103.1 0-56.9 49.7-103 111.1-103 61.5 0 111.2 46.1 111.2 103 0 57-49.7 103.1-111.2 103.1z"/><path class="a7" d="m451.2 245.5c-61.3 0-110.8-45.9-110.8-102.8 0-56.9 49.5-102.8 110.8-102.8 61.3 0 110.9 45.9 110.9 102.8 0 56.9-49.6 102.8-110.9 102.8z"/><path class="a8" d="m451.4 245.2c-61.1 0-110.5-45.9-110.5-102.6 0-56.8 49.4-102.7 110.5-102.7 61.2 0 110.6 45.9 110.6 102.7 0 56.7-49.4 102.6-110.6 102.6z"/><path class="a9" d="m451.6 244.9c-61 0-110.3-45.8-110.3-102.5 0-56.6 49.3-102.4 110.3-102.4 61 0 110.4 45.8 110.4 102.4 0 56.7-49.4 102.5-110.4 102.5z"/><path class="aa" d="m451.9 244.6c-60.9 0-110.1-45.7-110.1-102.3 0-56.5 49.2-102.2 110.1-102.2 60.8 0 110 45.7 110 102.2 0 56.6-49.2 102.3-110 102.3z"/><path class="ab" d="m452.1 244.3c-60.8 0-109.8-45.7-109.8-102.1 0-56.4 49-102.1 109.8-102.1 60.7 0 109.7 45.7 109.7 102.1 0 56.4-49 102.1-109.7 102.1z"/><path class="ac" d="m452.3 244c-60.6 0-109.5-45.6-109.5-101.9 0-56.4 48.9-101.9 109.5-101.9 60.5 0 109.5 45.5 109.5 101.9 0 56.3-49 101.9-109.5 101.9z"/><path class="ad" d="m452.5 243.6c-60.4 0-109.3-45.4-109.3-101.7 0-56.2 48.9-101.6 109.3-101.6 60.4 0 109.2 45.4 109.2 101.6 0 56.3-48.8 101.7-109.2 101.7z"/><path class="ae" d="m452.7 243.3c-60.3 0-109-45.3-109-101.5 0-56.1 48.7-101.5 109-101.5 60.2 0 108.9 45.4 108.9 101.5 0 56.2-48.7 101.5-108.9 101.5z"/><path class="af" d="m452.9 243c-60.1 0-108.7-45.3-108.7-101.3 0-56 48.6-101.3 108.7-101.3 60.1 0 108.6 45.3 108.6 101.3 0 56-48.5 101.3-108.6 101.3z"/><path class="ag" d="m453.1 242.7c-60 0-108.4-45.2-108.4-101.1 0-55.9 48.4-101.1 108.4-101.1 59.9 0 108.4 45.2 108.4 101.1 0 55.9-48.5 101.1-108.4 101.1z"/><path class="ah" d="m453.3 242.4c-59.8 0-108.2-45.1-108.2-101 0-55.8 48.4-100.9 108.2-100.9 59.8 0 108.1 45.1 108.1 100.9 0 55.9-48.3 101-108.1 101z"/><path class="ai" d="m453.5 242.1c-59.7 0-107.9-45.1-107.9-100.8 0-55.7 48.2-100.7 107.9-100.7 59.6 0 107.8 45 107.8 100.7 0 55.7-48.2 100.8-107.8 100.8z"/><path class="aj" d="m453.7 241.7c-59.5 0-107.6-44.9-107.6-100.5 0-55.6 48.1-100.5 107.6-100.5 59.5 0 107.6 44.9 107.6 100.5 0 55.6-48.1 100.5-107.6 100.5z"/><path class="ak" d="m453.9 241.4c-59.4 0-107.3-44.8-107.3-100.3 0-55.5 47.9-100.4 107.3-100.4 59.3 0 107.3 44.9 107.3 100.4 0 55.5-48 100.3-107.3 100.3z"/><path class="al" d="m454.1 241.1c-59.2 0-107-44.8-107-100.2 0-55.3 47.8-100.1 107-100.1 59.2 0 107 44.8 107 100.1 0 55.4-47.8 100.2-107 100.2z"/><path class="am" d="m454.3 240.8c-59 0-106.8-44.7-106.8-100 0-55.2 47.8-99.9 106.8-99.9 59 0 106.8 44.7 106.8 99.9 0 55.3-47.8 100-106.8 100z"/><path class="an" d="m454.5 240.4c-58.9 0-106.5-44.5-106.5-99.7 0-55.2 47.6-99.8 106.5-99.8 58.9 0 106.5 44.6 106.5 99.8 0 55.2-47.6 99.7-106.5 99.7z"/><path class="ao" d="m454.7 240.1c-58.7 0-106.2-44.5-106.2-99.5 0-55.1 47.5-99.6 106.2-99.6 58.8 0 106.2 44.5 106.2 99.6 0 55-47.4 99.5-106.2 99.5z"/><path class="ap" d="m454.9 239.8c-58.6 0-105.9-44.4-105.9-99.4 0-54.9 47.3-99.3 105.9-99.3 58.6 0 106 44.4 106 99.3 0 55-47.4 99.4-106 99.4z"/><path class="aq" d="m455.1 239.5c-58.4 0-105.7-44.3-105.7-99.2 0-54.8 47.3-99.1 105.7-99.1 58.5 0 105.7 44.3 105.7 99.1 0 54.9-47.2 99.2-105.7 99.2z"/><path class="ar" d="m455.3 239.2c-58.3 0-105.4-44.3-105.4-99 0-54.7 47.1-99 105.4-99 58.3 0 105.4 44.3 105.4 99 0 54.7-47.1 99-105.4 99z"/><path class="as" d="m455.5 238.9c-58.1 0-105.1-44.2-105.1-98.8 0-54.6 47-98.8 105.1-98.8 58.2 0 105.2 44.2 105.2 98.8 0 54.6-47 98.8-105.2 98.8z"/><path class="at" d="m455.7 238.5c-58 0-104.8-44-104.8-98.6 0-54.5 46.8-98.5 104.8-98.5 58 0 104.9 44 104.9 98.5 0 54.6-46.9 98.6-104.9 98.6z"/><path class="au" d="m455.9 238.2c-57.8 0-104.5-44-104.5-98.4 0-54.4 46.7-98.4 104.5-98.4 57.9 0 104.6 44 104.6 98.4 0 54.4-46.7 98.4-104.6 98.4z"/><path class="av" d="m456.1 237.9c-57.6 0-104.3-43.9-104.3-98.2 0-54.3 46.7-98.2 104.3-98.2 57.7 0 104.4 43.9 104.4 98.2 0 54.3-46.7 98.2-104.4 98.2z"/><path class="aw" d="m456.4 237.6c-57.6 0-104.1-43.8-104.1-98 0-54.2 46.5-98 104.1-98 57.5 0 104 43.8 104 98 0 54.2-46.5 98-104 98z"/><path class="ax" d="m456.6 237.3c-57.4 0-103.8-43.8-103.8-97.9 0-54 46.4-97.8 103.8-97.8 57.3 0 103.7 43.8 103.7 97.8 0 54.1-46.4 97.9-103.7 97.9z"/><path class="ay" d="m456.8 237c-57.3 0-103.5-43.7-103.5-97.7 0-54 46.2-97.6 103.5-97.6 57.2 0 103.5 43.6 103.5 97.6 0 54-46.3 97.7-103.5 97.7z"/><path class="az" d="m457 236.6c-57.1 0-103.3-43.5-103.3-97.4 0-53.9 46.2-97.4 103.3-97.4 57 0 103.2 43.5 103.2 97.4 0 53.9-46.2 97.4-103.2 97.4z"/><path class="aA" d="m457.2 236.3c-57 0-103-43.4-103-97.2 0-53.8 46-97.3 103-97.3 56.9 0 102.9 43.5 102.9 97.3 0 53.8-46 97.2-102.9 97.2z"/><path class="aB" d="m457.4 236c-56.8 0-102.7-43.4-102.7-97.1 0-53.6 45.9-97 102.7-97 56.8 0 102.6 43.4 102.6 97 0 53.7-45.8 97.1-102.6 97.1z"/><path class="aC" d="m457.6 235.7c-56.7 0-102.4-43.3-102.4-96.9 0-53.5 45.7-96.8 102.4-96.8 56.6 0 102.4 43.3 102.4 96.8 0 53.6-45.8 96.9-102.4 96.9z"/><path class="aD" d="m457.8 235.4c-56.5 0-102.2-43.2-102.2-96.7 0-53.5 45.7-96.7 102.2-96.7 56.5 0 102.1 43.2 102.1 96.7 0 53.5-45.6 96.7-102.1 96.7z"/><path class="aE" d="m458 235.1c-56.3 0-101.9-43.2-101.9-96.5 0-53.4 45.6-96.5 101.9-96.5 56.3 0 101.8 43.1 101.8 96.5 0 53.3-45.5 96.5-101.8 96.5z"/><path class="aF" d="m458.2 234.7c-56.2 0-101.6-43-101.6-96.3 0-53.2 45.4-96.2 101.6-96.2 56.2 0 101.6 43 101.6 96.3 0 53.2-45.4 96.2-101.6 96.2z"/><path class="aG" d="m458.4 234.4c-56 0-101.3-42.9-101.3-96.1 0-53.1 45.3-96.1 101.3-96.1 56 0 101.3 43 101.3 96.1 0 53.2-45.3 96.1-101.3 96.1z"/><path class="aH" d="m458.6 234.1c-55.9 0-101-42.9-101-95.9 0-53 45.1-95.9 101-95.9 55.9 0 101 42.9 101 95.9 0 53-45.1 95.9-101 95.9z"/><path class="aI" d="m458.8 233.8c-55.7 0-100.8-42.8-100.8-95.7 0-52.9 45.1-95.7 100.8-95.7 55.7 0 100.8 42.8 100.8 95.7 0 52.9-45.1 95.7-100.8 95.7z"/><path class="aJ" d="m459 233.4c-55.6 0-100.5-42.6-100.5-95.5 0-52.8 44.9-95.5 100.5-95.5 55.6 0 100.5 42.7 100.5 95.5 0 52.9-44.9 95.5-100.5 95.5z"/><path class="aK" d="m459.1 232.9c-55.4 0-100.1-42.5-100.1-95.2 0-52.7 44.7-95.2 100.1-95.2 55.4 0 100.2 42.5 100.2 95.2 0 52.7-44.8 95.2-100.2 95.2z"/><path class="aL" d="m459.3 232.4c-55.3 0-99.9-42.4-99.9-94.9 0-52.6 44.6-95 99.9-95 55.2 0 99.8 42.4 99.8 95 0 52.5-44.6 94.9-99.8 94.9z"/><path class="aM" d="m459.4 231.9c-55.1 0-99.6-42.3-99.6-94.7 0-52.3 44.5-94.7 99.6-94.7 55.1 0 99.6 42.4 99.6 94.7 0 52.4-44.5 94.7-99.6 94.7z"/><path class="aN" d="m459.5 231.4c-54.9 0-99.2-42.2-99.2-94.4 0-52.2 44.3-94.5 99.2-94.5 54.9 0 99.3 42.3 99.3 94.5 0 52.2-44.4 94.4-99.3 94.4z"/><path class="aO" d="m459.7 230.9c-54.7 0-99-42.1-99-94.2 0-52 44.3-94.1 99-94.1 54.7 0 98.9 42.1 98.9 94.1 0 52.1-44.2 94.2-98.9 94.2z"/><path class="aP" d="m459.8 230.4c-54.5 0-98.6-42-98.6-93.9 0-51.9 44.1-93.9 98.6-93.9 54.6 0 98.6 42 98.6 93.9 0 51.9-44 93.9-98.6 93.9z"/><path class="aQ" d="m459.9 229.9c-54.3 0-98.3-41.9-98.3-93.7 0-51.7 44-93.6 98.3-93.6 54.4 0 98.4 41.9 98.4 93.6 0 51.8-44 93.7-98.4 93.7z"/><path class="aR" d="m460.1 229.4c-54.2 0-98-41.8-98-93.4 0-51.6 43.8-93.4 98-93.4 54.2 0 98 41.8 98 93.4 0 51.6-43.8 93.4-98 93.4z"/><path class="aS" d="m460.2 228.8c-54 0-97.7-41.6-97.7-93.1 0-51.4 43.7-93.1 97.7-93.1 54 0 97.7 41.7 97.7 93.1 0 51.5-43.7 93.1-97.7 93.1z"/><path class="aT" d="m460.3 228.3c-53.8 0-97.3-41.5-97.3-92.8 0-51.3 43.5-92.8 97.3-92.8 53.9 0 97.4 41.5 97.4 92.8 0 51.3-43.5 92.8-97.4 92.8z"/><path class="aU" d="m460.5 227.8c-53.7 0-97.1-41.3-97.1-92.5 0-51.2 43.4-92.6 97.1-92.6 53.7 0 97.1 41.4 97.1 92.6 0 51.2-43.4 92.5-97.1 92.5z"/><path class="aV" d="m460.6 227.3c-53.5 0-96.8-41.2-96.8-92.3 0-51 43.3-92.3 96.8-92.3 53.5 0 96.8 41.3 96.8 92.3 0 51.1-43.3 92.3-96.8 92.3z"/><path class="aW" d="m460.7 226.8c-53.3 0-96.4-41.1-96.4-92 0-50.9 43.1-92.1 96.4-92.1 53.4 0 96.5 41.2 96.5 92.1 0 50.9-43.1 92-96.5 92z"/><path class="aX" d="m460.9 226.3c-53.2 0-96.2-41-96.2-91.8 0-50.7 43-91.7 96.2-91.7 53.1 0 96.1 41 96.1 91.7 0 50.8-43 91.8-96.1 91.8z"/><path class="aY" d="m461 225.8c-53 0-95.8-40.9-95.8-91.5 0-50.6 42.8-91.5 95.8-91.5 53 0 95.8 40.9 95.8 91.5 0 50.6-42.8 91.5-95.8 91.5z"/><path class="aZ" d="m461.1 225.3c-52.8 0-95.5-40.8-95.5-91.3 0-50.4 42.7-91.2 95.5-91.2 52.9 0 95.6 40.8 95.6 91.2 0 50.5-42.7 91.3-95.6 91.3z"/><path class="b0" d="m461.3 224.8c-52.7 0-95.2-40.7-95.2-91 0-50.3 42.5-91 95.2-91 52.6 0 95.2 40.7 95.2 91 0 50.3-42.6 91-95.2 91z"/><path class="b1" d="m461.4 224.3c-52.5-0.1-94.9-40.6-94.9-90.8 0-50.1 42.4-90.6 94.9-90.6 52.5 0 94.9 40.5 94.9 90.6 0 50.2-42.4 90.7-94.9 90.7z"/><path class="b2" d="m461.5 223.7c-52.3 0-94.5-40.4-94.5-90.4 0-50 42.2-90.4 94.5-90.4 52.3 0 94.6 40.4 94.6 90.4 0 50-42.3 90.4-94.6 90.4z"/><path class="b3" d="m461.7 223.2c-52.2 0-94.3-40.3-94.3-90.1 0-49.9 42.1-90.2 94.3-90.2 52.1 0 94.3 40.3 94.3 90.2 0 49.8-42.2 90.1-94.3 90.1z"/><path class="b4" d="m461.8 222.7c-52 0-94-40.2-94-89.9 0-49.7 42-89.9 94-89.9 52 0 94 40.2 94 89.9 0 49.7-42 89.9-94 89.9z"/><path class="b5" d="m461.9 222.2c-51.8 0-93.6-40.1-93.6-89.6 0-49.6 41.8-89.7 93.6-89.7 51.8 0 93.7 40.1 93.7 89.7 0 49.5-41.9 89.6-93.7 89.6z"/><path class="b6" d="m462.1 221.7c-51.6 0-93.4-39.9-93.4-89.4 0-49.4 41.8-89.3 93.4-89.3 51.6 0 93.3 39.9 93.3 89.3 0 49.5-41.7 89.4-93.3 89.4z"/><path class="b7" d="m462.2 221.2c-51.4 0-93-39.8-93-89.1 0-49.3 41.6-89.1 93-89.1 51.5 0 93 39.8 93 89.1 0 49.3-41.5 89.1-93 89.1z"/><path class="b8" d="m462.3 220.7c-51.2 0-92.7-39.7-92.7-88.9 0-49.1 41.5-88.8 92.7-88.8 51.3 0 92.8 39.7 92.8 88.8 0 49.2-41.5 88.9-92.8 88.9z"/><path class="b9" d="m462.5 220.2c-51.1 0-92.4-39.6-92.4-88.6 0-49 41.3-88.6 92.4-88.6 51.1 0 92.4 39.6 92.4 88.6 0 49-41.3 88.6-92.4 88.6z"/><path class="ba" d="m462.6 219.6c-50.9 0-92.1-39.4-92.1-88.3 0-48.8 41.2-88.2 92.1-88.2 50.9 0 92.1 39.4 92.1 88.3 0 48.8-41.2 88.2-92.1 88.2z"/><path class="bb" d="m462.7 219.1c-50.7 0-91.7-39.3-91.7-88 0-48.7 41-88 91.7-88 50.8 0 91.8 39.3 91.8 88 0 48.7-41 88-91.8 88z"/><path class="bc" d="m462.9 218.6c-50.6 0-91.5-39.2-91.5-87.7 0-48.6 40.9-87.8 91.5-87.8 50.6 0 91.5 39.2 91.5 87.8 0 48.5-40.9 87.7-91.5 87.7z"/><path class="bd" d="m463 218.1c-50.4 0-91.2-39.1-91.2-87.5 0-48.4 40.8-87.5 91.2-87.5 50.4 0 91.2 39.1 91.2 87.5 0 48.4-40.8 87.5-91.2 87.5z"/><path class="be" d="m463.1 217.6c-50.2 0-90.8-39-90.8-87.2 0-48.3 40.6-87.3 90.8-87.3 50.3 0 90.9 39 90.9 87.3 0 48.2-40.6 87.2-90.9 87.2z"/><path class="bf" d="m463.3 217.1c-50.1 0-90.6-38.9-90.6-87 0-48.1 40.5-86.9 90.6-86.9 50 0 90.5 38.8 90.5 86.9 0 48.1-40.5 87-90.5 87z"/><path class="bg" d="m463.4 216.6c-49.9 0-90.2-38.8-90.2-86.7 0-48 40.3-86.7 90.2-86.7 49.9 0 90.2 38.7 90.2 86.7 0 47.9-40.3 86.7-90.2 86.7z"/><path class="bh" d="m463.5 216.1c-49.7 0-89.9-38.7-89.9-86.5 0-47.8 40.2-86.4 89.9-86.4 49.8 0 90 38.6 90 86.4 0 47.8-40.2 86.5-90 86.5z"/><path class="bi" d="m463.7 215.6c-49.6 0-89.6-38.5-89.6-86.2 0-47.7 40-86.2 89.6-86.2 49.5 0 89.6 38.5 89.6 86.2 0 47.7-40.1 86.2-89.6 86.2z"/><path class="bj" d="m463.8 215.1c-49.4 0-89.3-38.4-89.3-85.9 0-47.6 39.9-85.9 89.3-85.9 49.4 0 89.3 38.3 89.3 85.9 0 47.5-39.9 85.9-89.3 85.9z"/><path class="bk" d="m463.9 214.5c-49.2 0-89-38.2-89-85.6 0-47.3 39.8-85.6 89-85.6 49.3 0 89 38.3 89 85.6 0 47.4-39.7 85.6-89 85.6z"/><path class="bl" d="m464.1 214c-49.1 0-88.7-38.1-88.7-85.3 0-47.2 39.6-85.4 88.7-85.4 49 0 88.6 38.2 88.6 85.4 0 47.2-39.6 85.3-88.6 85.3z"/><path class="bm" d="m464.2 213.5c-48.9 0-88.4-38-88.4-85.1 0-47 39.5-85.1 88.4-85.1 48.9 0 88.4 38.1 88.4 85.1 0 47.1-39.5 85.1-88.4 85.1z"/><path class="bn" d="m464.3 213c-48.7 0-88-37.9-88-84.8 0-46.9 39.3-84.9 88-84.9 48.7 0 88.1 38 88.1 84.9 0 46.9-39.4 84.8-88.1 84.8z"/><path class="bo" d="m464.5 212.5c-48.6 0-87.8-37.8-87.8-84.6 0-46.7 39.2-84.5 87.8-84.5 48.5 0 87.7 37.8 87.7 84.5 0 46.8-39.2 84.6-87.7 84.6z"/><path class="bp" d="m464.6 212c-48.3 0-87.4-37.7-87.4-84.3 0-46.6 39.1-84.3 87.4-84.3 48.4 0 87.4 37.7 87.4 84.3 0 46.6-39 84.3-87.4 84.3z"/><path class="bq" d="m464.7 211.5c-48.1 0-87.1-37.6-87.1-84.1 0-46.4 39-84 87.1-84 48.2 0 87.2 37.6 87.2 84 0 46.5-39 84.1-87.2 84.1z"/><path class="br" d="m464.9 211c-48 0-86.8-37.5-86.8-83.8 0-46.3 38.8-83.8 86.8-83.8 48 0 86.8 37.5 86.8 83.8 0 46.3-38.8 83.8-86.8 83.8z"/><path class="bs" d="m465 210.4c-47.8 0-86.5-37.3-86.5-83.5 0-46.1 38.7-83.5 86.5-83.5 47.8 0 86.5 37.4 86.5 83.5 0 46.2-38.7 83.5-86.5 83.5z"/></svg>